<svg width="126" height="45" viewBox="0 0 126 45" fill="none" xmlns="http://www.w3.org/2000/svg">
<g clip-path="url(#clip0_185_616)">
<path d="M97.6031 14.2635C97.4022 14.7801 97.1344 15.2321 96.7996 15.6195C96.4648 16.0069 95.9961 16.3298 95.3935 16.5235C94.8578 16.7172 94.1883 16.8464 93.3848 16.8464C92.7822 16.8464 92.3135 16.8464 91.9787 16.7818C91.6439 16.7172 91.3761 16.6527 91.2422 16.6527V11.9389C91.2422 10.9057 91.51 10.0663 92.0457 9.42054C92.5813 8.77481 93.3848 8.38737 94.4561 8.38737C95.5274 8.38737 96.3309 8.77481 96.9335 9.54968C97.5361 10.3246 97.804 11.2931 97.804 12.52C97.8709 13.1012 97.804 13.7469 97.6031 14.2635ZM99.8796 7.03135C99.277 6.4502 98.6074 5.99819 97.804 5.7399C97.0005 5.41703 96.197 5.28789 95.3266 5.28789C94.657 5.28789 94.1213 5.35246 93.6526 5.54618C93.1839 5.67532 92.7822 5.86904 92.3804 6.06276C92.0457 6.25648 91.7778 6.4502 91.577 6.64391C91.3761 6.83763 91.3091 6.96678 91.2422 6.96678V0.703234L87.3587 1.80097V19.3647C87.4926 19.3647 87.6935 19.4293 88.0282 19.4293C88.363 19.4939 88.7648 19.4939 89.2335 19.5584C89.7022 19.623 90.2378 19.623 90.8404 19.6876C91.4431 19.7522 92.1126 19.7522 92.7152 19.7522C95.7283 19.7522 98.0048 19.1064 99.4779 17.7504C101.018 16.3944 101.754 14.4572 101.754 12.068C101.754 10.9703 101.554 10.0017 101.219 9.16225C101.018 8.3228 100.482 7.6125 99.8796 7.03135ZM80.1273 13.1657C80.1273 14.1989 79.8595 15.0384 79.3239 15.6841C78.7882 16.3298 77.9847 16.7172 76.9134 16.7172C75.8421 16.7172 75.0386 16.3298 74.436 15.5549C73.8334 14.7801 73.5656 13.8115 73.5656 12.5846C73.5656 11.9389 73.6325 11.2931 73.8334 10.7766C74.0343 10.26 74.3021 9.80797 74.6369 9.42054C74.9717 9.0331 75.4404 8.71024 76.043 8.51652C76.5786 8.3228 77.2482 8.19366 78.0517 8.19366C78.6543 8.19366 79.123 8.19366 79.4578 8.25823C79.7925 8.3228 80.0604 8.38737 80.1943 8.38737V13.1657H80.1273ZM82.0691 5.93362C81.5334 5.80447 80.8639 5.67532 80.1273 5.54618C79.3239 5.41703 78.4534 5.35246 77.4491 5.35246C76.2438 5.35246 75.1056 5.54618 74.1012 5.86904C73.0969 6.25648 72.2934 6.77306 71.6238 7.41878C70.9542 8.06451 70.4186 8.83938 70.0168 9.80797C69.6821 10.712 69.4812 11.8743 69.4812 13.0366C69.4812 14.1343 69.6821 15.1029 70.0168 15.9424C70.3516 16.7818 70.8203 17.4921 71.4229 18.0733C72.0256 18.6544 72.6951 19.1064 73.4986 19.3647C74.3021 19.623 75.1056 19.8167 76.043 19.8167C76.6456 19.8167 77.2482 19.7522 77.7169 19.5584C78.1856 19.4293 78.5873 19.2356 78.9891 19.0419C79.3239 18.8481 79.5917 18.6544 79.7925 18.4607C79.9934 18.267 80.1273 18.1378 80.1273 18.0733V19.3647H84.0108V6.70849C83.9439 6.64391 83.743 6.57934 83.4082 6.38562C83.0734 6.19191 82.6047 6.06276 82.0691 5.93362ZM69.4812 5.86904C69.0794 5.67532 68.5438 5.48161 67.7403 5.35246C67.2716 5.28789 66.736 5.22332 66.2673 5.22332C65.3968 5.22332 64.6603 5.28789 63.9238 5.41703C63.1872 5.54618 62.5846 5.7399 62.049 5.93362C61.5133 6.12733 61.0446 6.32105 60.7098 6.4502C60.375 6.64391 60.1742 6.77306 60.1072 6.77306V19.2356H63.9907V8.90395C64.1246 8.83938 64.4594 8.71024 64.8612 8.51652C65.2629 8.38737 65.8655 8.25823 66.669 8.25823C66.9368 8.25823 67.2047 8.25823 67.4725 8.3228C67.7403 8.38737 68.0081 8.38737 68.276 8.45195H68.3429C68.7447 7.54793 69.0794 6.70849 69.4812 5.80447C69.4142 5.93361 69.4812 5.86904 69.4812 5.86904ZM121.775 13.1657C121.775 14.1989 121.507 15.0384 120.971 15.6841C120.435 16.3298 119.632 16.7172 118.561 16.7172C117.489 16.7172 116.686 16.3298 116.083 15.5549C115.481 14.7801 115.213 13.8115 115.213 12.5846C115.213 11.9389 115.28 11.2931 115.481 10.7766C115.681 10.26 115.949 9.80797 116.284 9.42054C116.619 9.0331 117.088 8.71024 117.69 8.51652C118.226 8.3228 118.895 8.19366 119.699 8.19366C120.301 8.19366 120.77 8.19366 121.105 8.25823C121.44 8.3228 121.708 8.38737 121.841 8.38737L121.775 13.1657ZM125.055 6.38562C124.721 6.25648 124.319 6.06276 123.783 5.93362C123.248 5.80447 122.578 5.67532 121.841 5.54618C121.038 5.41703 120.168 5.35246 119.163 5.35246C117.958 5.35246 116.82 5.54618 115.815 5.86904C114.811 6.25648 114.008 6.77306 113.338 7.41878C112.668 8.06451 112.133 8.83938 111.731 9.80797C111.396 10.712 111.195 11.8743 111.195 13.0366C111.195 14.1343 111.396 15.1029 111.731 15.9424C112.066 16.7818 112.534 17.4921 113.137 18.0733C113.74 18.6544 114.409 19.1064 115.213 19.3647C116.016 19.623 116.82 19.8167 117.757 19.8167C118.36 19.8167 118.962 19.7522 119.431 19.5584C119.9 19.4293 120.301 19.2356 120.703 19.0419C121.038 18.8481 121.306 18.6544 121.507 18.4607C121.708 18.267 121.841 18.1378 121.841 18.0733V19.3647H125.725V6.70849C125.591 6.64391 125.39 6.51477 125.055 6.38562ZM106.575 0.380371C105.973 0.380371 105.504 0.574089 105.035 0.961524C104.634 1.34896 104.366 1.80097 104.366 2.38212C104.366 2.96328 104.567 3.41528 105.035 3.86729C105.437 4.25473 105.973 4.44845 106.575 4.44845C107.178 4.44845 107.714 4.25473 108.115 3.86729C108.517 3.47986 108.718 2.96328 108.718 2.38212C108.718 1.80097 108.517 1.34896 108.115 0.961524C107.714 0.574089 107.178 0.380371 106.575 0.380371ZM104.701 19.3647H108.584V5.35246L104.701 6.4502V19.3647ZM44.7741 11.7451C45.1089 10.9057 45.4437 10.0017 45.7784 9.16225C46.1132 8.25823 46.448 7.48336 46.7158 6.77306C46.9837 6.12733 47.2515 5.48161 47.4524 4.90045C47.6532 4.38387 47.8541 3.99644 47.9211 3.80272C47.988 3.99644 48.1889 4.3193 48.3898 4.90045C48.6576 5.54618 48.9254 6.12733 49.1263 6.77306L50.0637 9.16225C50.3985 10.0663 50.7333 10.9057 51.068 11.7451H44.7741ZM55.4872 12.3909C55.0185 11.2286 54.5498 10.1308 54.0811 9.0331C53.6794 8.06451 53.2107 7.03135 52.8089 5.99819C52.4741 5.15874 52.1393 4.38387 51.7376 3.609C51.4698 3.09242 51.2689 2.51127 51.0011 1.99469C50.5993 1.09067 50.3985 0.703234 50.3985 0.703234H45.4437C45.4437 0.703234 45.2428 1.09067 44.841 1.99469C44.5732 2.51127 44.3054 3.02785 44.1045 3.609C43.7697 4.38387 43.368 5.22332 43.0332 5.99819C42.6315 6.9022 42.2297 7.93537 41.761 9.0331C41.2923 10.1308 40.8236 11.2931 40.3549 12.3909C39.8862 13.5532 39.4175 14.7155 38.9488 15.9424C38.4801 17.1047 38.0784 18.267 37.6767 19.3647H41.761L43.368 15.2321H52.4741L54.0811 19.3647H58.1655C57.7637 18.2024 57.295 17.0401 56.8263 15.9424C56.4246 14.7155 55.9559 13.5532 55.4872 12.3909ZM24.5531 0.380371C23.9505 0.380371 23.4818 0.574089 23.0131 0.961524C22.6114 1.34896 22.4105 1.80097 22.4105 2.38212C22.4105 2.96328 22.6114 3.41528 23.0131 3.86729C23.4818 4.25473 23.9505 4.44845 24.5531 4.44845C25.1557 4.44845 25.6914 4.25473 26.0931 3.86729C26.4949 3.47986 26.6957 2.96328 26.6957 2.38212C26.6957 1.80097 26.4949 1.34896 26.0931 0.961524C25.6914 0.574089 25.1557 0.380371 24.5531 0.380371ZM22.6114 19.3647H26.4949V5.35246L22.6114 6.4502V19.3647ZM7.07735 11.7451C7.41213 10.9057 7.74692 10.0017 8.0817 9.16225C8.41649 8.25823 8.75127 7.48336 9.0191 6.77306C9.28693 6.06276 9.55476 5.41703 9.75563 4.90045C9.9565 4.38387 10.1574 3.99644 10.2243 3.80272C10.2913 3.99644 10.4922 4.3193 10.693 4.90045C10.9609 5.54618 11.2287 6.12733 11.4295 6.77306C11.6974 7.48336 12.0322 8.3228 12.3669 9.16225C12.7017 10.0663 13.0365 10.9057 13.3713 11.7451H7.07735ZM17.7905 12.3909C17.3218 11.2286 16.8531 10.1308 16.3844 9.0331C15.9157 7.93537 15.5139 6.96678 15.1122 5.99819C14.7774 5.22332 14.4426 4.38387 14.1078 3.609C13.84 3.09242 13.6391 2.51127 13.3713 1.99469C13.1704 1.54268 12.9696 1.15524 12.7687 0.703234H7.81388C7.81388 0.703234 7.61301 1.09067 7.21126 1.99469C7.01039 2.38212 6.80952 2.8987 6.47474 3.609C6.073 4.38387 5.73821 5.22332 5.40343 5.99819C5.00169 6.9022 4.59994 7.93537 4.13125 9.0331C3.66255 10.1308 3.19385 11.2931 2.72515 12.3909C2.25645 13.5532 1.78775 14.7155 1.31906 15.9424C0.850358 17.1047 0.448616 18.267 0.046875 19.3647H4.13125L5.73821 15.2321H14.8444L16.4513 19.3647H20.5357C20.1339 18.2024 19.6652 17.0401 19.2635 15.9424C18.7279 14.7155 18.2592 13.5532 17.7905 12.3909ZM38.4132 8.58109C38.8149 7.67707 39.2167 6.77306 39.5514 5.93362C39.5514 5.93362 39.5514 5.86904 39.6184 5.86904C39.2167 5.67532 38.681 5.48161 37.8775 5.35246C37.4088 5.28789 36.8732 5.22332 36.4045 5.22332C35.534 5.22332 34.7975 5.28789 34.061 5.41703C33.3245 5.54618 32.7218 5.7399 32.1862 5.93362C31.6505 6.12733 31.1818 6.32105 30.8471 6.4502C30.5123 6.64391 30.3114 6.77306 30.2444 6.77306V19.2356H34.1279V8.90395C34.2619 8.83938 34.5966 8.71024 34.9984 8.51652C35.4001 8.38737 36.0027 8.25823 36.8062 8.25823C37.074 8.25823 37.3419 8.25823 37.6097 8.3228C37.8775 8.38737 38.1454 8.38737 38.4132 8.45195C38.3462 8.58109 38.3462 8.58109 38.4132 8.58109ZM74.7038 34.9267C74.7038 35.7662 74.503 36.4765 74.0343 37.0576C73.5656 37.6388 72.896 37.8971 72.0256 37.8971C71.0882 37.8971 70.4186 37.5742 69.8829 36.9285C69.3473 36.2827 69.1464 35.4433 69.1464 34.4101C69.1464 33.8936 69.2134 33.3124 69.3473 32.8604C69.4812 32.4084 69.749 32.0209 70.0168 31.6981C70.3516 31.3752 70.6864 31.1169 71.1551 30.9232C71.6238 30.7295 72.2264 30.6649 72.829 30.6649C73.2977 30.6649 73.6995 30.6649 74.0343 30.7295C74.369 30.7941 74.5699 30.7941 74.6369 30.8586L74.7038 34.9267ZM96.13 28.4049L92.8492 29.3089V37.7033H89.0326C88.6309 37.7033 88.2961 37.6388 88.0282 37.5096C87.7604 37.3805 87.5596 37.2513 87.4256 36.993C87.2917 36.7993 87.2248 36.4765 87.1578 36.1536C87.0909 35.7662 87.0909 35.3787 87.0909 35.0559V28.4049L83.81 29.3089V35.1204C83.81 35.5724 83.81 35.8953 83.743 36.2182C83.6761 36.541 83.6091 36.7993 83.4752 37.0576C83.3413 37.2513 83.1404 37.445 82.8726 37.5742C82.6047 37.7033 82.27 37.7679 81.8682 37.7679H78.0517V29.438C77.9847 29.3735 77.7838 29.3089 77.516 29.1798C77.2482 29.0506 76.9134 28.9215 76.4447 28.7923C75.976 28.6632 75.4404 28.534 74.7708 28.4695C74.1012 28.3403 73.3647 28.3403 72.4942 28.3403C71.4229 28.3403 70.4855 28.4695 69.6821 28.7923C68.8786 29.1152 68.1421 29.5026 67.5394 30.0838C66.9368 30.6649 66.5351 31.3106 66.2003 32.0855C65.8655 32.8604 65.7316 33.829 65.7316 34.7976C65.7316 35.7016 65.8655 36.541 66.2003 37.2513C66.4681 37.9616 66.8699 38.5428 67.4055 39.0594C67.8742 39.5114 68.4768 39.8988 69.1464 40.1571C69.816 40.4154 70.5525 40.5445 71.289 40.5445C71.8247 40.5445 72.2934 40.48 72.6951 40.3508C73.0969 40.2217 73.4316 40.0925 73.7664 39.8988C74.0343 39.7051 74.3021 39.5759 74.436 39.4468C74.5699 39.3176 74.7038 39.1885 74.7038 39.1239V40.4154H77.9847H82.5378C83.1404 40.4154 83.743 40.2862 84.2787 40.0925C84.8143 39.8988 85.2161 39.4468 85.5508 38.8656C85.8856 39.4468 86.2874 39.8988 86.7561 40.0925C87.2248 40.2862 87.7604 40.4154 88.363 40.4154H96.0631L96.13 28.4049ZM85.6178 41.5131C85.0822 41.5131 84.6804 41.7068 84.3456 42.0297C84.0108 42.3526 83.81 42.8046 83.81 43.2566C83.81 43.7732 84.0108 44.1606 84.3456 44.4835C84.6804 44.8063 85.1491 45 85.6178 45C86.1535 45 86.5552 44.8063 86.9569 44.4835C87.2917 44.1606 87.4926 43.7086 87.4926 43.2566C87.4926 42.74 87.2917 42.3526 86.9569 42.0297C86.5552 41.7068 86.0865 41.5131 85.6178 41.5131ZM42.6984 37.8325C41.4932 38.1553 39.6854 37.8325 39.5514 37.7679V31.2461C39.5514 31.2461 40.8236 30.3421 42.4306 30.6649C44.0376 30.9878 45.1089 32.1501 45.1089 34.4101C45.1089 36.1536 44.2384 37.3805 42.6984 37.8325ZM59.1698 37.7679H56.9602C56.5585 37.7679 56.2237 37.7033 55.9559 37.5742C55.6881 37.445 55.4872 37.3159 55.3533 37.0576C55.2194 36.8639 55.1524 36.541 55.0854 36.2182C55.0185 35.8953 55.0185 35.5079 55.0185 35.1204V24.0785L51.7376 24.9825V35.1204C51.7376 35.5724 51.7376 35.8953 51.6707 36.2182C51.6037 36.541 51.5367 36.7993 51.4028 37.0576C51.2689 37.2513 51.068 37.445 50.8002 37.5742C50.5324 37.7033 50.1976 37.7679 49.7959 37.7679H47.5863C48.1219 36.8639 48.3898 35.7016 48.3898 34.3456C48.3898 30.8586 46.3141 28.6632 43.301 28.3403C41.5602 28.1466 39.8862 28.7277 39.4175 28.9215V24.0785L36.2036 24.9825V37.7033H34.8645C34.4627 37.7033 34.1279 37.6388 33.8601 37.5096C33.5923 37.3805 33.3914 37.2513 33.2575 36.993C33.1236 36.7993 33.0566 36.4765 32.9897 36.1536C32.9227 35.7662 32.9227 35.3787 32.9227 35.0559V28.4049L29.6418 29.3089V35.1204C29.6418 35.5724 29.6418 35.8953 29.5749 36.2182C29.5079 36.541 29.441 36.7993 29.307 37.0576C29.1731 37.2513 28.9723 37.445 28.7044 37.5742C28.4366 37.7033 28.1018 37.7679 27.7001 37.7679H23.8835V28.4049L20.6026 29.3089V40.2862C20.6026 40.9965 20.4018 41.4485 20.067 41.7068C19.7322 41.9651 19.2635 42.0943 18.6609 42.0943C18.3261 42.0943 17.9913 42.0297 17.5896 41.9651C17.2548 41.9006 17.0539 41.836 16.987 41.7714L16.1835 43.9023C16.1835 43.9023 16.3174 43.9669 16.5183 44.0314C16.7191 44.096 16.92 44.1606 17.1878 44.2252C17.4557 44.2897 17.7905 44.3543 18.1252 44.4189C18.46 44.4835 18.8618 44.4835 19.1966 44.4835C19.7992 44.4835 20.4018 44.4189 20.9374 44.2897C21.4731 44.1606 22.0087 43.9023 22.4105 43.5149C22.8122 43.192 23.147 42.6754 23.4148 42.0943C23.6827 41.5131 23.8166 40.8028 23.8166 39.8988V40.4154H28.3696C28.9723 40.4154 29.5749 40.2862 30.1105 40.0925C30.6462 39.8988 31.0479 39.4468 31.3827 38.8656C31.7175 39.4468 32.1192 39.8988 32.5879 40.0925C33.0566 40.2862 33.5923 40.4154 34.1949 40.4154H50.5324C51.135 40.4154 51.7376 40.2862 52.2733 40.0925C52.8089 39.8988 53.2107 39.4468 53.5454 38.8656C53.8802 39.4468 54.282 39.8988 54.7507 40.0925C55.2194 40.2862 55.755 40.4154 56.3576 40.4154H62.4507V24.0785L59.1698 24.9825V37.7679ZM80.663 41.5131C80.1273 41.5131 79.7256 41.7068 79.3908 42.0297C79.056 42.3526 78.8552 42.8046 78.8552 43.2566C78.8552 43.7732 79.056 44.1606 79.3908 44.4835C79.7256 44.8063 80.1943 45 80.663 45C81.1986 45 81.6004 44.8063 82.0021 44.4835C82.3369 44.1606 82.5378 43.7086 82.5378 43.2566C82.5378 42.74 82.3369 42.3526 82.0021 42.0297C81.6004 41.7068 81.1986 41.5131 80.663 41.5131ZM90.5057 41.5131C89.97 41.5131 89.5683 41.7068 89.1665 42.0297C88.8317 42.3526 88.6309 42.8046 88.6309 43.2566C88.6309 43.7732 88.8317 44.1606 89.1665 44.4835C89.5013 44.8063 89.97 45 90.5057 45C91.0413 45 91.4431 44.8063 91.7778 44.4835C92.1126 44.1606 92.3135 43.7086 92.3135 43.2566C92.3135 42.74 92.1126 42.3526 91.7778 42.0297C91.4431 41.7068 91.0413 41.5131 90.5057 41.5131ZM122.377 25.0471V40.4154H125.658V24.0785L122.377 25.0471ZM116.552 36.2182C116.552 36.9285 116.351 37.3805 116.016 37.6388C115.681 37.8971 115.213 38.0262 114.61 38.0262H108.919C108.785 37.8971 108.651 37.8325 108.517 37.7033C108.182 37.3805 107.981 36.993 107.781 36.541C107.58 36.089 107.513 35.5079 107.513 34.8621C107.513 33.6353 107.847 32.7312 108.45 32.0209C109.053 31.3106 109.923 31.0524 110.928 31.0524C111.396 31.0524 111.798 31.1169 112.133 31.2461C112.468 31.3752 112.802 31.5044 113.07 31.6335L114.342 29.2443C114.141 29.0506 113.673 28.8569 113.137 28.6632C112.534 28.4695 111.731 28.3403 110.593 28.3403C109.722 28.3403 108.852 28.4695 108.048 28.7923C107.312 29.1152 106.575 29.5026 106.04 30.0838C105.437 30.6649 104.968 31.3106 104.634 32.1501C104.299 32.925 104.098 33.8936 104.098 34.8621C104.098 35.8953 104.299 36.8639 104.634 37.6388C104.701 37.7679 104.767 37.8971 104.834 38.0262H101.821V28.4049L98.5405 29.3089V40.2862C98.5405 40.9965 98.3396 41.4485 98.0048 41.7068C97.6701 41.9651 97.2013 42.0943 96.5987 42.0943C96.2639 42.0943 95.9292 42.0297 95.5944 41.9651C95.3935 41.9006 95.1926 41.836 94.9918 41.7714L94.1883 43.9023C94.1883 43.9023 94.3222 43.9669 94.5231 44.0314C94.7239 44.096 94.9248 44.1606 95.1926 44.2252C95.4605 44.2897 95.7952 44.3543 96.13 44.4189C96.4648 44.4835 96.8666 44.4835 97.2014 44.4835C97.804 44.4835 98.4066 44.4189 98.9422 44.2897C99.4779 44.1606 100.014 43.9023 100.415 43.5149C100.817 43.192 101.152 42.6754 101.42 42.0943C101.687 41.5131 101.821 40.8028 101.821 39.8988V40.4154H115.213C115.815 40.4154 116.418 40.3508 116.954 40.2217C117.489 40.0925 118.025 39.8342 118.427 39.4468C118.828 39.0594 119.163 38.6073 119.431 38.0262C119.699 37.445 119.833 36.6702 119.833 35.8307V24.0785L116.552 24.9825V36.2182ZM74.6369 27.1134C75.1725 27.1134 75.5743 26.9197 75.976 26.5968C76.3108 26.274 76.5117 25.822 76.5117 25.37C76.5117 24.8534 76.3108 24.466 75.976 24.1431C75.6412 23.8202 75.1725 23.6265 74.6369 23.6265C74.1012 23.6265 73.6995 23.8202 73.3647 24.1431C73.0299 24.466 72.829 24.918 72.829 25.37C72.829 25.8865 73.0299 26.274 73.3647 26.5968C73.6995 26.9843 74.1682 27.1134 74.6369 27.1134ZM6.20691 27.4363C6.74257 27.4363 7.14431 27.2426 7.54605 26.9197C7.88083 26.5968 8.0817 26.1448 8.0817 25.6928C8.0817 25.1763 7.88083 24.7888 7.54605 24.466C7.21126 24.1431 6.74257 23.9494 6.20691 23.9494C5.67126 23.9494 5.26951 24.1431 4.93473 24.466C4.59995 24.7888 4.39907 25.2408 4.39907 25.6928C4.39907 26.2094 4.59995 26.5968 4.93473 26.9197C5.26951 27.2426 5.67126 27.4363 6.20691 27.4363ZM69.749 27.1134C70.2847 27.1134 70.6864 26.9197 71.0882 26.5968C71.4229 26.274 71.6238 25.822 71.6238 25.37C71.6238 24.8534 71.4229 24.466 71.0882 24.1431C70.7534 23.8202 70.2847 23.6265 69.749 23.6265C69.2134 23.6265 68.8116 23.8202 68.4768 24.1431C68.1421 24.466 67.9412 24.918 67.9412 25.37C67.9412 25.8865 68.1421 26.274 68.4768 26.5968C68.8116 26.9843 69.2134 27.1134 69.749 27.1134ZM9.08606 33.6353C9.08606 35.637 9.08606 37.9616 6.20691 37.9616C3.32776 37.9616 3.32776 35.7016 3.32776 33.6353V30.9232L0.046875 31.8272V33.5061V33.829C0.046875 34.9913 0.247746 35.9599 0.58253 36.7993C0.917315 37.7033 1.38601 38.4136 1.92167 38.9948C2.45732 39.5759 3.12689 39.9634 3.93038 40.2217C4.6669 40.48 5.47038 40.6091 6.34082 40.6091C7.14431 40.6091 7.88083 40.48 8.61736 40.2862C9.35389 40.028 10.0235 39.7051 10.5591 39.1239C11.0948 38.6074 11.5635 37.8971 11.8982 36.993C12.233 36.089 12.4339 34.9913 12.4339 33.6998V28.4695L9.15302 29.3735L9.08606 33.6353ZM31.4497 41.5131C30.914 41.5131 30.5123 41.7068 30.1775 42.0297C29.8427 42.3526 29.6418 42.8046 29.6418 43.2566C29.6418 43.7732 29.8427 44.1606 30.1775 44.4835C30.5123 44.8063 30.981 45 31.4497 45C31.9853 45 32.3871 44.8063 32.7888 44.4835C33.1236 44.1606 33.3245 43.7086 33.3245 43.2566C33.3245 42.74 33.1236 42.3526 32.7888 42.0297C32.3871 41.7068 31.9853 41.5131 31.4497 41.5131ZM18.1252 24.0785L14.8444 24.9825V40.4154H18.1252V24.0785ZM26.4949 41.5131C25.9592 41.5131 25.5575 41.7068 25.2227 42.0297C24.8879 42.3526 24.687 42.8046 24.687 43.2566C24.687 43.7732 24.8879 44.1606 25.2227 44.4835C25.5575 44.8063 26.0262 45 26.4949 45C27.0305 45 27.4323 44.8063 27.834 44.4835C28.1688 44.1606 28.3696 43.7086 28.3696 43.2566C28.3696 42.74 28.1688 42.3526 27.834 42.0297C27.4992 41.7068 27.0305 41.5131 26.4949 41.5131Z" fill="#8D8D8D"/>
</g>
<defs>
<clipPath id="clip0_185_616">
<rect width="125.611" height="44.6197" fill="white" transform="translate(0.046875 0.380371)"/>
</clipPath>
</defs>
</svg>
