<svg width="125" height="44" viewBox="0 0 125 44" fill="none" xmlns="http://www.w3.org/2000/svg">
<path d="M33.4313 32.0352C33.126 33.0997 32.3845 34.7879 31.0971 37.7242L29.6162 41.0725C29.7937 41.0465 29.9741 40.9955 30.19 40.9955C30.3943 40.9955 30.6381 41.0465 30.8028 41.0725C31.0059 40.3329 31.4148 39.2542 31.8222 38.2559C32.3331 38.2286 32.8447 38.2038 33.3543 38.2038C33.9036 38.2038 34.4398 38.2287 34.9902 38.2559L35.5237 39.6325L36.0609 41.0725C36.2908 41.0595 36.6482 40.9955 37.0046 40.9955C37.3622 40.9955 37.8092 41.0595 38.0008 41.0725C37.426 39.813 36.5828 37.8511 36.0987 36.7216C35.6389 35.6323 34.8732 33.8146 34.2614 32.0352C34.1209 32.0742 33.9929 32.101 33.8537 32.101C33.7004 32.101 33.5718 32.0742 33.4313 32.0352ZM65.0418 32.0352C64.7366 33.0997 63.9951 34.7879 62.7064 37.7242L61.2268 41.0725C61.4069 41.0465 61.5835 40.9955 61.8006 40.9955C62.0049 40.9955 62.2473 41.0465 62.4146 41.0725C62.6177 40.3329 63.0278 39.2542 63.4353 38.2559C63.9449 38.2286 64.4553 38.2038 64.9649 38.2038C65.5141 38.2038 66.0492 38.2287 66.5984 38.2559L67.1343 39.6325L67.6703 41.0725C67.9014 41.0595 68.2588 40.9955 68.6152 40.9955C68.9728 40.9955 69.4198 41.0595 69.6101 41.0725C69.0367 39.813 68.1934 37.8511 67.7081 36.7216C67.2483 35.6323 66.4838 33.8146 65.872 32.0352C65.7315 32.0742 65.6035 32.101 65.463 32.101C65.311 32.101 65.1823 32.0742 65.0418 32.0352ZM79.6843 32.0612C77.3738 32.0612 76.7104 33.5154 76.7104 34.6567C76.7104 35.7355 77.0819 36.3988 78.3182 36.9564C78.6746 37.1123 79.2767 37.3445 79.633 37.5018C79.8757 37.6045 80.6805 37.9671 80.6805 38.9939C80.6805 39.9298 80.0144 40.619 79.008 40.619C78.2544 40.619 77.6165 40.4241 77.0303 39.1256H76.8508C76.7882 39.7482 76.7749 39.9171 76.5578 40.5917C77.0176 40.8256 77.8474 41.2551 78.9433 41.2551C81.2793 41.2551 82.1845 39.737 82.1845 38.4112C82.1845 38.0473 82.0959 37.2803 81.5607 36.6967C81.1903 36.2808 80.8069 36.1387 79.8247 35.7487C78.7033 35.3068 78.0509 35.0464 78.0509 34.0988C78.0509 33.3332 78.5484 32.6961 79.5561 32.6961C80.3595 32.6961 81.0383 33.0871 81.2286 33.8267H81.4069C81.5218 33.3341 81.547 33.2299 81.8024 32.593C81.1766 32.3083 80.6154 32.0612 79.6843 32.0612ZM38.9909 32.1644C39.1186 33.4226 39.119 34.3459 39.119 35.1648C39.119 37.3849 39.1191 39.5283 38.9786 41.0725C39.2609 41.0608 39.617 40.9955 39.8967 40.9955C40.1905 40.9955 40.4966 41.0608 40.7903 41.0725C40.6882 40.0209 40.6634 38.6184 40.6634 36.6843C40.6634 35.3715 40.6633 33.1262 40.8038 32.1644C40.4972 32.2034 40.179 32.2439 39.8967 32.2439C39.7064 32.2439 39.2323 32.1917 38.9909 32.1644ZM42.9573 32.1644C43.0454 33.8398 43.0452 34.0212 43.0452 35.7226C43.0452 38.2274 43.0325 38.5145 42.9317 41.0725C43.2126 41.0348 43.5194 40.9955 43.8106 40.9955C44.1312 40.9955 44.411 41.0465 44.6664 41.0725C44.6664 40.7358 44.6152 39.0603 44.6152 38.6833V36.8396H44.9216C45.6113 37.8261 46.4005 38.9685 47.0519 39.9953C47.2435 40.293 47.5245 40.7748 47.716 41.0725C48.0992 41.0205 48.2532 40.9955 48.7513 40.9955C49.2098 40.9955 49.5291 41.0348 49.8854 41.0725C49.0821 40.0482 48.7359 39.5931 47.7295 38.1516C47.5379 37.8786 47.2569 37.4492 47.0653 37.1775L46.7076 36.6582C47.8699 36.4372 48.9283 35.6955 48.9283 34.2553C48.9283 33.7094 48.7242 33.1774 48.3423 32.8005C47.7944 32.2689 47.1679 32.1644 46.339 32.1644C46.0452 32.1644 44.5638 32.229 44.233 32.229C43.5817 32.229 43.2498 32.1917 42.9573 32.1644ZM49.6413 32.1644C50.1649 33.5669 50.6099 34.8118 50.9561 35.7997C51.5436 37.4881 51.9258 38.6589 52.3856 40.0848L52.7031 41.0725C52.8819 41.0348 53.085 40.9955 53.2268 40.9955C53.3673 40.9955 53.4956 41.0205 53.7115 41.0725C53.9158 40.3979 54.1589 39.5666 54.339 39.0337C54.8345 37.5532 54.8986 37.3459 55.55 35.5027L55.9321 34.4256C56.0726 34.8402 56.3154 35.5031 56.4546 35.9177C56.5951 36.3206 57.2463 38.3072 57.3995 38.7492C57.6039 39.3328 57.6546 39.501 58.1271 41.0725C58.2421 41.0595 58.4824 40.9955 58.6753 40.9955C58.8541 40.9955 58.994 41.0348 59.1856 41.0725C59.6709 39.5283 59.7217 39.3727 60.4357 37.2943C61.1382 35.2679 61.5715 34.1128 62.3365 32.1644C62.1449 32.2163 61.9556 32.2426 61.7627 32.2426C61.5201 32.2426 61.3172 32.2034 61.1767 32.1644C60.7169 33.8528 60.4887 34.672 60.1183 35.7873C59.518 37.6044 59.4412 37.8122 59.0721 38.8001C58.6633 37.6836 58.2668 36.5533 57.8964 35.412C57.6933 34.7881 56.9129 32.1917 56.9014 32.1644C56.7239 32.2034 56.5953 32.2426 56.3399 32.2426C56.1125 32.2426 55.9443 32.1917 55.7795 32.1644C55.3964 33.7488 54.0431 37.567 53.9153 37.918L53.5967 38.7616L53.3538 38.0348C52.756 36.2293 51.9258 33.6968 51.5299 32.1644C51.2106 32.2163 50.9312 32.2426 50.6374 32.2426C50.3309 32.2426 49.8967 32.1917 49.6413 32.1644ZM68.3063 32.1644C68.9692 33.2939 70.0539 35.0858 70.704 36.2283L71.4572 37.554C71.4572 38.3599 71.4186 40.0599 71.3815 41.0725C71.6229 41.0465 71.9807 40.9955 72.2349 40.9955C72.5286 40.9955 72.8238 41.0465 73.1175 41.0725C73.0652 39.865 73.026 39.1639 73.026 38.0721V37.5925C73.026 37.4768 73.1026 37.3336 73.192 37.1763C73.7284 36.2417 74.2263 35.267 74.801 34.3324C74.9914 34.0204 75.923 32.5153 76.1159 32.1644C75.9741 32.2164 75.8341 32.2439 75.5799 32.2439C75.2977 32.2439 75.042 32.2034 74.8377 32.1644C73.9194 34.2168 73.7147 34.6574 72.6317 36.5538C71.5473 34.6197 71.0617 33.5942 70.3976 32.1644C70.0285 32.2294 69.6578 32.2439 69.3525 32.2439C69.0716 32.2439 68.7776 32.2164 68.3063 32.1644ZM45.5222 32.8005C45.9424 32.8005 46.3653 32.866 46.7076 33.126C47.1547 33.4626 47.2436 33.9306 47.2436 34.4765C47.2436 35.3188 46.7725 36.2693 45.4966 36.2693C45.1645 36.2693 44.8578 36.2413 44.6152 36.2283V32.8663C44.8067 32.852 45.2796 32.8005 45.5222 32.8005ZM33.4191 34.2554L34.6179 37.4496C34.2232 37.4769 33.8406 37.5018 33.4447 37.5018C32.9977 37.5018 32.5647 37.4626 32.1177 37.4496L33.4191 34.2554ZM65.0284 34.2554L66.2297 37.4496C65.8338 37.4769 65.4513 37.5018 65.0541 37.5018C64.6083 37.5018 64.174 37.4626 63.7282 37.4496L65.0284 34.2554Z" fill="#8D8D8D"/>
<path d="M43.5743 0.594727C42.6547 3.79097 40.4354 8.85568 36.5692 17.6593L32.1267 27.7105C32.6631 27.6338 33.1992 27.4769 33.8493 27.4769C34.461 27.4769 35.191 27.6338 35.6878 27.7105C36.2996 25.4891 37.5273 22.2558 38.7508 19.2558C40.2809 19.1791 41.8122 19.1018 43.3435 19.1018C44.9899 19.1018 46.5975 19.1791 48.2451 19.2558L49.8505 23.3869L51.4595 27.7105C52.1479 27.6715 53.2215 27.4769 54.2918 27.4769C55.366 27.4769 56.7031 27.6715 57.2791 27.7105C55.5562 23.9319 53.0291 18.0488 51.5731 14.6589C50.1949 11.3872 47.8989 5.93177 46.0623 0.594727C45.6408 0.71301 45.258 0.791027 44.8378 0.791027C44.378 0.791027 43.9945 0.713011 43.5743 0.594727ZM86.193 0.594727C85.2759 3.79097 83.0541 8.85568 79.1867 17.6593L74.7478 27.7105C75.283 27.6338 75.8203 27.4769 76.4704 27.4769C77.0822 27.4769 77.8095 27.6338 78.3089 27.7105C78.922 25.4891 80.1447 22.2558 81.3695 19.2558C82.8996 19.1791 84.432 19.1018 85.9647 19.1018C87.611 19.1018 89.2187 19.1791 90.8638 19.2558L92.4716 23.3869L94.0794 27.7105C94.7678 27.6715 95.8414 27.4769 96.9129 27.4769C97.9845 27.4769 99.3243 27.6715 99.8991 27.7105C98.1761 23.9319 95.6489 18.0488 94.1942 14.6589C92.8161 11.3872 90.5188 5.93177 88.6822 0.594727C88.2607 0.71301 87.8779 0.791027 87.4577 0.791027C86.9979 0.791027 86.6144 0.713011 86.193 0.594727ZM15.1109 0.674237C7.37996 0.674237 0.718749 5.03672 0.71875 14.9322C0.71875 17.034 1.17865 21.0092 4.39341 24.3212C7.72438 27.7501 11.6664 28.2559 14.9974 28.2559C15.4176 28.2559 15.8382 28.2563 16.261 28.2186L25.0264 35.1923C26.1746 34.3734 27.9746 33.3607 29.2761 32.7758L20.6254 27.3204C25.945 25.4122 29.2761 20.5802 29.2761 13.9967C29.2761 4.64841 22.2697 0.674237 15.1109 0.674237ZM55.697 0.98608C55.8132 1.45401 55.8886 1.95935 55.8886 2.42729C55.8886 2.89522 55.8132 3.40061 55.697 3.86725C57.6511 3.67357 61.3256 3.59516 61.6692 3.59516H63.5847C63.623 5.11594 63.6604 6.47852 63.6604 7.92001L63.6994 18.7887C63.6994 21.751 63.4706 24.7508 63.3161 27.7105C64.6942 27.5558 65.2688 27.4769 65.9189 27.4769C66.3787 27.4769 67.6034 27.5948 68.7145 27.7105C68.5983 26.6212 68.446 25.334 68.446 22.3743V7.95977C68.446 6.47928 68.4833 4.99896 68.5216 3.59516C71.1629 3.59516 73.8826 3.63458 76.1408 3.86725C76.0258 3.24463 75.9491 2.89474 75.9491 2.4658C75.9491 2.15385 76.0258 1.64639 76.1408 0.98608C72.4662 1.17975 69.0966 1.21842 65.9189 1.21842C62.9711 1.21842 58.7214 1.17976 55.697 0.98608ZM104.061 0.98608C104.328 6.01117 104.328 6.55538 104.328 11.6584C104.328 19.1792 104.289 20.0351 103.984 27.7105C104.826 27.5948 105.745 27.4769 106.625 27.4769C107.581 27.4769 108.424 27.6338 109.189 27.7105C109.189 26.6966 109.037 21.6726 109.037 20.5417V15.0092H109.956C112.023 17.9702 114.398 21.3997 116.35 24.4777C116.923 25.3746 117.765 26.8162 118.338 27.7105C119.488 27.5558 119.947 27.4769 121.439 27.4769C122.817 27.4769 123.775 27.5948 124.846 27.7105C122.435 24.6338 121.403 23.2697 118.377 18.9452C117.803 18.1263 116.961 16.8406 116.386 16.0231L115.316 14.4663C118.798 13.8034 121.976 11.5836 121.976 7.2578C121.976 5.62134 121.363 4.02392 120.213 2.89567C118.568 1.2982 116.693 0.98608 114.205 0.98608C113.323 0.98608 108.884 1.1799 107.888 1.1799C105.935 1.1799 104.94 1.06277 104.061 0.98608ZM15.0365 2.65962C21.314 2.65962 24.0315 7.9588 24.0315 13.6078C24.0315 16.8404 23.6478 19.8804 22.0781 22.3358C20.5084 24.7885 17.9072 26.2693 15.0731 26.2693C7.99222 26.2693 5.96215 19.4115 5.96215 15.126C5.96215 5.30983 11.1308 2.65962 15.0365 2.65962ZM111.754 2.89567C113.018 2.89567 114.28 3.08866 115.316 3.86725C116.654 4.8811 116.922 6.28224 116.922 7.92001C116.922 10.452 115.507 13.2972 111.679 13.2972C110.682 13.2972 109.764 13.2168 109.037 13.1804V3.0895C109.61 3.0518 111.026 2.89567 111.754 2.89567ZM43.5364 7.25781L47.1342 16.8418C45.9464 16.9211 44.7988 16.9984 43.6097 16.9984C42.2712 16.9984 40.9696 16.8808 39.631 16.8418L43.5364 7.25781ZM86.1551 7.25781L89.7541 16.8418C88.5675 16.9211 87.4186 16.9984 86.232 16.9984C84.891 16.9984 83.5908 16.8808 82.2497 16.8418L86.1551 7.25781ZM115.54 32.1645C114.972 32.1645 114.817 32.4186 114.817 32.8839C114.817 33.3492 115.02 33.5113 115.54 33.5113C116.065 33.5113 116.434 33.3063 116.434 32.8839C116.434 32.4641 116.19 32.1645 115.54 32.1645ZM117.562 32.1645C116.99 32.1645 116.838 32.4186 116.838 32.8839C116.838 33.3492 117.033 33.5113 117.562 33.5113C118.083 33.5113 118.449 33.3063 118.449 32.8839C118.449 32.4641 118.206 32.1645 117.562 32.1645ZM85.8145 32.2863C85.241 32.2863 85.0881 32.5416 85.0881 33.0056C85.0881 33.4736 85.287 33.6368 85.8145 33.6368C86.3356 33.6368 86.7033 33.4281 86.7033 33.0056C86.7033 32.5819 86.4595 32.2863 85.8145 32.2863ZM87.7617 32.2863C87.1857 32.2863 87.0341 32.5416 87.0341 33.0056C87.0341 33.4736 87.2329 33.6368 87.7617 33.6368C88.2879 33.6368 88.6431 33.4281 88.6431 33.0056C88.6431 32.5819 88.4029 32.2863 87.7617 32.2863ZM102.233 32.3372C102.233 32.3372 101.348 32.9698 100.697 33.4728C100.049 33.9758 100.697 34.3139 100.697 34.3139V39.67H98.8406L98.8015 35.073C98.8015 35.073 97.5092 36.0342 97.1388 36.3266C96.7773 36.6178 96.9781 36.877 97.3829 36.877C97.3829 36.877 97.3085 40.2707 97.3085 41.0714C97.3085 41.8773 96.6526 42.7982 95.277 42.3797C95.277 42.3797 94.8411 42.4655 95.2038 42.8009C95.5652 43.1349 96.0014 43.3898 96.4905 43.3898C96.9771 43.3898 98.76 43.0471 98.76 41.0714H122.13V32.5037C122.13 32.5037 120.755 33.4282 120.471 33.679C120.186 33.9299 120.269 34.2314 120.636 34.1872V39.67H118.619V34.6916C118.619 34.6916 118.206 34.8518 117.64 35.1066C117.079 35.3652 115.052 36.2045 115.052 37.338V38.6475H117.117V39.67H112.216C112.22 39.4295 112.224 39.0754 112.224 38.5568C112.224 36.9229 110.857 36.0334 109.64 36.0334H103.973C102.981 36.0334 102.501 36.2783 102.233 36.5577L102.233 32.3372ZM124.802 32.5087C124.802 32.5087 123.423 33.4357 123.143 33.6853C122.859 33.9361 122.942 34.2362 123.303 34.1946V41.0814H124.802V32.5087ZM89.2633 33.2604C89.2633 33.2604 87.5989 34.8167 87.4431 35.0233C87.2821 35.2443 87.8386 35.4445 87.8386 35.4445L87.7446 36.0521C87.7446 36.0521 87.0818 36.4016 86.2772 36.9553C85.4777 37.5025 84.8842 38.2012 84.8842 38.6847C84.8842 39.1696 84.6828 41.0714 84.6828 41.0714H95.2673V35.98C95.2673 35.98 94.3112 36.5397 93.7059 37.0882C93.1043 37.6316 93.8292 37.8374 93.8292 37.8374V39.67H89.2633L89.2633 33.2604ZM117.117 36.7043V37.5467H116.147C116.147 37.0047 117.117 36.7043 117.117 36.7043ZM103.404 37.5032H109.597C110.934 37.5032 110.728 38.2194 110.728 38.6847C110.728 38.9343 110.716 39.3411 110.704 39.67H102.233V38.1542C102.454 37.5706 102.827 37.5032 103.404 37.5032ZM87.8008 37.6312V39.67H86.2271C86.2271 39.67 86.0152 38.684 86.5848 38.307C87.157 37.9249 87.8008 37.6312 87.8008 37.6312ZM90.71 41.6231C90.1403 41.6231 89.9836 41.8708 89.9836 42.3375C89.9836 42.8002 90.185 42.9698 90.71 42.9698C91.2311 42.9698 91.6 42.7586 91.6 42.3375C91.6 41.9124 91.3601 41.6231 90.71 41.6231ZM92.7329 41.6231C92.1632 41.6231 92.0077 41.8708 92.0077 42.3375C92.0077 42.8002 92.2143 42.9698 92.7329 42.9698C93.2616 42.9698 93.6253 42.7586 93.6253 42.3375C93.6253 41.9124 93.3855 41.6231 92.7329 41.6231Z" fill="#8D8D8D"/>
</svg>
