<svg width="123" height="45" viewBox="0 0 123 45" fill="none" xmlns="http://www.w3.org/2000/svg">
<path fill-rule="evenodd" clip-rule="evenodd" d="M0.361328 42.0126H84.9225L83.2445 44.6193H0.361328V42.0126Z" fill="#8D8D8D"/>
<path fill-rule="evenodd" clip-rule="evenodd" d="M100.323 40.8322H97.2135L103.49 30.9663C103.49 30.9663 104.43 28.921 103.2 26.7609L94.4508 12.3295C94.4508 12.3295 93.6848 10.9897 94.4508 9.70788L97.0397 5.84753L107.308 22.5551C107.308 22.5551 109.955 26.055 107.076 30.3901L100.323 40.8322Z" fill="#8D8D8D"/>
<path fill-rule="evenodd" clip-rule="evenodd" d="M107.829 37.8075L111.647 32.0175C111.647 32.0175 112.76 29.6263 115.639 29.6263H119.688L122.508 34.0629C122.508 34.0629 120.281 33.8325 119.283 35.417L115.118 41.6675C115.118 41.6675 113.758 44.5915 110.129 44.5915H90.5179L97.9804 33.1843C97.9804 33.1843 99.0354 31.8451 97.5606 29.627L90.9223 18.9976C90.9223 18.9976 89.2884 17.428 90.9799 14.7348L92.9186 11.8104L102.145 26.7026C102.145 26.7026 103.779 28.748 102.145 31.1966L95.2178 41.9553H109.825C109.825 41.9553 111.473 42.2576 112.891 40.1549L116.52 34.5957C116.52 34.5957 117.345 32.7231 119.167 31.9598H116.231C116.231 31.9598 114.698 32.0175 113.527 33.8321L110.302 38.8012C110.302 38.8012 109.13 40.9039 106.542 40.9039H101.437L107.597 31.3836C107.597 31.3836 110.953 26.9911 108.595 22.958L98.3849 6.13616C98.3849 6.13616 97.6189 4.68093 98.5008 3.32719L100.727 0L112.355 18.6518C112.355 18.6518 114.062 21.4461 114.062 23.6062C114.062 25.7667 112.703 28.2152 111.95 29.4539L106.831 37.4043C106.831 37.4043 106.252 38.1676 106.657 38.4557C107.077 38.7435 107.482 38.2253 107.829 37.8075Z" fill="#8D8D8D"/>
<path fill-rule="evenodd" clip-rule="evenodd" d="M42.9381 29.7129H44.7459V36.8424H49.1568V38.3692H42.9377L42.9381 29.7129ZM50.5451 38.3692H52.3383V29.7129H50.5451V38.3692ZM28.5336 38.3692H30.3125V29.7129H28.5336V38.3692ZM65.1659 29.7129H71.9783V31.1389H66.9737V33.2563H71.2259V34.8262H66.9737V36.9289H71.9783V38.3692H65.1659V29.7129ZM74.7545 18.0759H81.5666V19.5016H76.563V21.6043H80.8292V23.1743H76.563V25.277H81.5666V26.7027H74.7545V18.0759ZM33.0748 38.3692V29.7129H38.2378C38.2378 29.7129 40.7251 29.756 40.7251 32.2334C40.7251 32.2334 40.9565 34.293 38.8454 35.1282L41.4629 38.3689H39.2356L35.62 33.8749H37.5004C37.5004 33.8749 38.8454 33.8464 38.8454 32.4927C38.8454 31.2105 37.7607 31.1097 37.4281 31.1097H34.8826V38.3689H33.0748M64.848 26.703V18.0756H70.011C70.011 18.0756 72.4986 18.1183 72.4986 20.5964C72.4986 20.5964 72.7154 22.6408 70.6186 23.4763L73.2361 26.7023H71.0091L67.3935 22.2379H69.2736C69.2736 22.2379 70.6186 22.2091 70.6186 20.855C70.6186 19.5586 69.5343 19.4721 69.2017 19.4721H66.6561V26.703H64.848ZM28.6638 25.2051H31.1075V21.2446H32.843V26.7027H28.2876C27.6078 26.7027 24.3251 25.9394 24.2961 22.4972C24.2672 19.0842 27.2609 18.0759 28.4178 18.0759H32.8867V19.6024H28.8519C28.8519 19.6024 26.1472 19.6024 26.1472 22.4395C26.1472 24.6431 28.3888 25.2047 28.6635 25.2047M54.6957 29.7129H56.5182V31.0527L57.6608 29.7132H59.8155C59.8155 29.7132 62.7655 29.5548 62.7655 32.6946V38.3692H60.9291V32.4204C60.9291 32.4204 60.8712 31.2394 59.6274 31.2394H56.5182V38.3689H54.6957V29.7129ZM14.5777 18.0759H16.3855V19.4005L17.5277 18.0759H19.6828C19.6828 18.0759 22.6475 17.9174 22.6475 21.0569V26.7027H20.8104V20.7841C20.8104 20.7841 20.7385 19.6031 19.4947 19.6031H16.3851V26.703H14.5777V18.0759ZM10.2969 26.703H12.0757V18.0752H10.2969V26.703ZM73.9595 38.355V36.8858H78.9921C78.9921 36.8858 79.9902 37.0728 79.9902 35.863C79.9902 34.6535 79.2381 34.7831 78.9638 34.7831H76.0566C76.0566 34.7831 73.8151 34.9412 73.8151 32.3203C73.8151 29.7132 76.0277 29.7132 76.0277 29.7132H81.5519V31.2397H76.7068C76.7068 31.2397 75.6511 31.2397 75.6511 32.2337C75.6511 33.2278 76.3599 33.4144 77.0251 33.4144H79.6143C79.6143 33.4144 81.798 33.184 81.798 35.7764C81.798 38.3692 79.5564 38.355 79.5564 38.355H73.9595ZM0.549479 26.703V25.2339H5.58199C5.58199 25.2339 6.58011 25.4212 6.58011 24.2114C6.58011 23.0015 5.82768 23.1312 5.55302 23.1312H2.64589C2.64589 23.1312 0.404297 23.2893 0.404297 20.6826C0.404297 18.0613 2.61727 18.0759 2.61727 18.0759H8.14187V19.6024H3.29677C3.29677 19.6024 2.24106 19.6024 2.24106 20.5964C2.24106 21.5894 2.96452 21.7771 3.61505 21.7771H6.2039C6.2039 21.7771 8.38756 21.5466 8.38756 24.1245C8.38756 26.7166 6.14596 26.7023 6.14596 26.7023H0.54913" fill="#8D8D8D"/>
<path d="M58.667 17.5427C56.0607 17.5427 53.9307 19.6583 53.9307 22.264C53.9307 24.8797 56.0607 26.9769 58.6666 26.9769C59.289 26.9796 59.9059 26.8597 60.4815 26.6238C61.0572 26.388 61.5802 26.041 62.0206 25.6029C62.4609 25.1648 62.8098 24.6442 63.0471 24.0711C63.2844 23.498 63.4054 22.8839 63.4032 22.264C63.4052 21.6438 63.2842 21.0293 63.047 20.4558C62.8097 19.8824 62.461 19.3613 62.0209 18.9226C61.5807 18.4838 61.0578 18.136 60.4822 17.8992C59.9066 17.6624 59.2897 17.5413 58.667 17.5427ZM58.667 25.2401C57.0316 25.2401 55.7096 23.9125 55.7096 22.264C55.7096 20.6378 57.0333 19.2844 58.667 19.2844C60.3142 19.2844 61.6638 20.6378 61.6638 22.264C61.6638 23.9125 60.3142 25.2401 58.667 25.2401ZM40.0376 18.0752H38.1251L34.0014 26.703H36.0343L37.1312 24.2221H41.0595L42.1427 26.703H44.1687M37.6348 22.9515L39.0831 19.4192L40.5147 22.9428L37.6348 22.9515ZM23.1026 29.7136H21.1901L17.0664 38.3692H19.099L20.1958 35.8803H24.1238L25.2071 38.3692H27.233M20.6998 34.6055L22.1481 31.0618L23.5797 34.5971L20.6998 34.6055ZM50.1089 18.0752H45.2963V26.703H47.1424V22.5132L48.2093 23.975H50.1089C51.7736 23.975 52.889 22.5969 52.889 21.0253C52.889 19.4588 51.7736 18.0752 50.1089 18.0752ZM50.0436 22.3762H47.1407V19.6625H50.0436C50.6952 19.6625 51.1405 20.3799 51.1405 21.0284C51.1423 21.6964 50.6973 22.3762 50.0436 22.3762Z" fill="#8D8D8D"/>
</svg>
