<svg width="158" height="45" viewBox="0 0 158 45" fill="none" xmlns="http://www.w3.org/2000/svg">
<path fill-rule="evenodd" clip-rule="evenodd" d="M48.7209 28.2559C48.2708 27.3231 47.7564 26.4525 47.1137 25.7062C46.4708 24.96 45.7636 24.3381 44.992 23.7784C44.606 23.4675 44.1562 23.2187 43.7061 23.0322C43.5132 22.908 43.2558 22.7834 43.0632 22.6588C43.2558 22.5968 43.5132 22.4722 43.7061 22.3483C44.1562 22.1618 44.606 21.9125 44.992 21.6019C45.7636 21.0422 46.4705 20.4203 47.1137 19.674C47.7564 18.9278 48.2708 18.0572 48.7211 17.1243C49.1709 16.1915 49.4924 15.1965 49.6855 14.1393C49.7496 13.3931 49.8136 12.6468 49.8136 11.9628V10.9678C49.7496 10.0972 49.5567 9.22653 49.235 8.3559C48.9137 7.54746 48.528 6.67684 48.0134 5.93132C47.4995 5.12215 46.9209 4.43882 46.2136 3.75402C45.5064 3.13288 44.7348 2.51101 43.899 2.01277C42.9986 1.516 42.0988 1.14288 41.07 0.894129C40.0411 0.583191 39.0124 0.396628 37.8553 0.396628C36.7626 0.334441 35.7341 0.457836 34.7051 0.644644C33.745 0.894619 32.8175 1.24955 31.9405 1.70257C31.0401 2.13788 30.2685 2.69757 29.5616 3.38163C28.8989 4.02553 28.3359 4.75862 27.8899 5.5582C27.4396 6.3659 27.1184 7.23652 26.9895 8.16934C26.8614 8.66684 26.8614 9.10215 26.8614 9.59965C26.8614 10.035 26.8614 10.4081 26.9255 10.7812C26.0256 10.2837 25.1257 9.8484 24.2254 9.59965C23.1323 9.22653 21.8462 9.03996 20.5606 8.97778C19.339 8.97778 18.1817 9.10215 17.0886 9.35164C16.0602 9.53746 15.0315 9.91059 14.0668 10.4081C13.2312 10.8434 12.3311 11.4031 11.495 12.0872C10.9809 12.5225 10.4663 12.9578 9.9522 13.4553C9.9522 13.4553 9.18066 14.2015 8.79489 14.699C8.34483 15.1343 7.89477 15.694 7.44445 16.2537L6.41599 17.4975C6.15881 17.8706 5.90163 18.1815 5.58041 18.4925C5.19464 18.99 4.74458 19.4253 4.29452 19.8606C3.52298 20.6071 2.68715 21.2909 1.78703 21.8506L1.20838 22.2237C1.07953 22.2857 0.951198 22.3483 0.822608 22.4103C0.693766 22.4722 0.56543 22.5349 0.56543 22.6588C0.56543 22.8456 0.693766 22.908 0.822608 22.97C0.951198 23.0322 1.07953 23.0946 1.20838 23.1565L1.78703 23.5297C2.6869 24.0896 3.52298 24.7734 4.29427 25.5197C4.74483 25.955 5.19464 26.39 5.58041 26.8878C5.90189 27.1987 6.15881 27.5097 6.41574 27.8828L7.44445 29.1265C7.89502 29.686 8.34483 30.2457 8.79489 30.6812C9.18066 31.1782 9.9522 31.8626 9.9522 31.8626C10.4663 32.4222 10.9809 32.8576 11.495 33.2929C12.3311 33.9769 13.2312 34.5366 14.0668 34.9719C15.0312 35.4692 16.0602 35.8423 17.0886 36.0289C18.1817 36.3401 19.339 36.4022 20.5606 36.4022C21.8465 36.3401 23.1323 36.1535 24.2254 35.7804C25.1255 35.5316 26.0256 35.0963 26.9255 34.5988C26.8614 34.9719 26.8614 35.3451 26.8614 35.7804C26.8614 36.2779 26.8614 36.7132 26.9895 37.2104C27.1186 38.1432 27.4396 39.0141 27.8899 39.8223C28.34 40.6308 28.9186 41.377 29.5616 41.9989C30.2685 42.6829 31.0401 43.2426 31.9405 43.6779C32.8173 44.1311 33.7449 44.4857 34.7051 44.7349C35.7338 44.9214 36.7626 45.0461 37.8553 44.9839C39.0124 44.9839 40.0411 44.7973 41.07 44.4864C42.0988 44.2376 42.9989 43.8645 43.899 43.3668C44.7348 42.8697 45.5064 42.2479 46.2134 41.6255C46.9209 40.9417 47.4995 40.2574 48.0134 39.4489C48.528 38.7032 48.9137 37.8326 49.235 37.0239C49.5564 36.1535 49.7496 35.2826 49.8136 34.3503V33.4175C49.8136 32.7329 49.7496 31.9869 49.6853 31.2409C49.4924 30.1832 49.1709 29.1885 48.7209 28.2559Z" fill="#C6C6C6"/>
<path fill-rule="evenodd" clip-rule="evenodd" d="M46.0202 29.2501C45.6344 28.4417 45.1846 27.6959 44.5419 27.0121C43.963 26.3278 43.2555 25.7679 42.4842 25.3326C41.6482 24.8351 40.8123 24.4624 39.9125 24.2759C39.0121 23.9647 38.0477 23.8401 37.0835 23.8401C36.0548 23.8401 35.0904 23.9647 34.0616 24.2132C33.2258 24.4 32.4543 24.649 31.6833 25.0216C30.9758 25.3326 30.3328 25.7679 29.7542 26.2037C29.1699 26.5832 28.6116 26.9986 28.0825 27.4474C27.5038 27.8203 26.9892 28.1934 26.4111 28.5663C25.8965 28.8772 25.3181 29.1882 24.6749 29.4367C23.9679 29.6233 23.2604 29.7476 22.5534 29.7476C21.589 29.7476 20.6246 29.5613 19.7244 29.1882C18.8243 28.8151 18.0525 28.3176 17.4098 27.6337C16.7026 27.0119 16.1885 26.2037 15.8668 25.3328C15.481 24.5244 15.3529 23.5916 15.3529 22.6585C15.3529 21.7881 15.481 20.8553 15.8668 20.0469C16.1882 19.1762 16.7026 18.43 17.4098 17.7459C18.0528 17.0619 18.8243 16.5644 19.7244 16.1912C20.6185 15.8214 21.581 15.631 22.5534 15.6315C23.2604 15.6315 23.9679 15.7559 24.6749 15.9425C25.3181 16.1912 25.8965 16.5022 26.4111 16.8131C26.9892 17.1862 27.5038 17.5594 28.0825 17.9947C28.5966 18.3678 29.1755 18.8031 29.7542 19.2384C30.3328 19.6118 30.9758 20.0469 31.683 20.3576C32.4543 20.7307 33.2258 20.9799 34.0616 21.1665C35.0904 21.415 36.0548 21.5396 37.0835 21.5396C38.0479 21.5396 39.0123 21.415 39.9125 21.1665C40.8123 20.9172 41.6482 20.5441 42.4842 20.0469C43.2555 19.6118 43.963 19.0519 44.5417 18.3678C45.1846 17.6837 45.6344 16.9375 46.0202 16.129C46.4062 15.2584 46.6631 14.3878 46.792 13.455C46.9206 12.461 46.9206 11.465 46.7277 10.47C46.5348 9.53716 46.2131 8.60435 45.7633 7.79591C45.3132 6.98747 44.7346 6.30341 44.0916 5.68153C43.3844 4.99845 42.6771 4.49997 41.8413 4.06564C41.0052 3.69227 40.1053 3.38133 39.205 3.19477C38.3051 3.0082 37.2764 2.94504 36.3122 3.07039C35.4118 3.19477 34.4474 3.44352 33.6116 3.87883C32.84 4.25195 32.0685 4.81164 31.4904 5.43352C30.8469 6.05466 30.3969 6.80091 30.0111 7.60935C29.6899 8.41779 29.4324 9.28841 29.3681 10.159C29.3681 11.0297 29.4324 11.9625 29.7542 12.8331C29.7542 12.9575 29.8182 13.0819 29.8827 13.2062C29.8827 13.2684 29.8827 13.3306 29.947 13.3928C29.947 13.455 29.947 13.5172 30.0111 13.5794C30.0111 13.5794 30.0759 13.6415 30.1399 13.6415C30.1399 13.6415 30.204 13.5794 30.204 13.5172V13.144C30.2638 12.6724 30.3938 12.2116 30.5897 11.7759C30.9758 10.9675 31.5542 10.2834 32.2614 9.78591C33.0329 9.35133 33.9333 9.10185 34.8332 9.03966C35.7976 8.97747 36.7623 9.10185 37.5976 9.53716C38.3694 9.91029 39.0121 10.5322 39.4624 11.2784C39.9125 12.0247 40.1053 12.9575 40.1053 13.8281C40.1053 14.6987 39.8479 15.6315 39.3338 16.3778C38.8837 17.124 38.1763 17.7459 37.3407 18.1812C36.5054 18.5544 35.5409 18.7409 34.6403 18.6165C33.9974 18.5544 33.3544 18.3678 32.776 18.119C32.1971 17.8703 31.6185 17.4972 31.1043 17.124C30.5257 16.6887 29.947 16.2534 29.4324 15.8181C28.8538 15.3206 28.2756 14.8231 27.6967 14.3878C27.0538 13.8903 26.4108 13.455 25.7036 13.144C24.9323 12.7087 24.1608 12.3978 23.3249 12.149C22.4248 11.9003 21.4601 11.7759 20.496 11.7759C19.5316 11.7759 18.5671 11.8381 17.6027 12.0869C16.7669 12.2734 15.9954 12.5222 15.2241 12.8953C14.5811 13.2684 13.9382 13.7037 13.2952 14.2012C12.7166 14.6365 12.2022 15.1962 11.6879 15.7559C11.1735 16.3156 10.7234 16.8753 10.2731 17.435C9.75903 17.9947 9.30897 18.6165 8.85865 19.1762C8.34455 19.7359 7.89448 20.2334 7.31583 20.7934C6.80147 21.2904 6.28712 21.7257 5.64442 22.1615C5.51574 22.2235 5.38715 22.2857 5.25866 22.348C5.19436 22.41 5.06552 22.4719 5.00148 22.5346C4.93718 22.5346 4.80859 22.5965 4.80859 22.6585C4.80859 22.7834 4.93718 22.8453 5.00148 22.9077C5.06552 22.9077 5.19436 22.9697 5.25866 23.0319C5.38725 23.0943 5.51558 23.1562 5.64442 23.2804C6.28737 23.6535 6.80122 24.0893 7.31583 24.5866C7.89448 25.0841 8.34455 25.644 8.85865 26.2037C9.30922 26.7629 9.75903 27.3852 10.2731 27.9444C10.7237 28.5041 11.1735 29.0641 11.6876 29.6233C12.2022 30.1832 12.7166 30.7429 13.295 31.1779C13.9382 31.6757 14.5809 32.1108 15.2238 32.4841C15.9956 32.8573 16.7669 33.106 17.6027 33.2926C18.5671 33.5413 19.5316 33.6035 20.496 33.6035C21.4604 33.6035 22.4248 33.4791 23.3249 33.2304C24.1608 32.9816 24.9323 32.6707 25.7036 32.2976C26.4111 31.9244 27.0535 31.4891 27.6967 30.9914C28.2754 30.5563 28.8538 30.0588 29.4324 29.6233C29.947 29.1262 30.5259 28.6907 31.1043 28.2556C31.6185 27.8825 32.1971 27.5094 32.776 27.2606C33.3547 27.0121 33.9976 26.8256 34.6403 26.7629C35.5407 26.6387 36.5054 26.8256 37.3407 27.1987C38.1763 27.5718 38.8837 28.2556 39.3338 29.0016C39.8479 29.7479 40.1053 30.6807 40.1053 31.5511C40.1053 32.4839 39.9125 33.3548 39.4624 34.1008C39.0121 34.8473 38.3694 35.4689 37.5976 35.842C36.7623 36.2778 35.7979 36.4019 34.8334 36.3398C33.9333 36.3398 33.0329 36.0288 32.2617 35.5935C31.5544 35.096 30.9758 34.4119 30.5897 33.6035C30.3938 33.1678 30.2638 32.707 30.204 32.2354V31.8623C30.204 31.8001 30.1399 31.7379 30.1399 31.7379C30.0759 31.7379 30.0111 31.8001 30.0111 31.8001C29.947 31.8623 29.947 31.9244 29.947 31.9866C29.8827 32.0488 29.8827 32.111 29.8827 32.1729C29.8182 32.2976 29.7542 32.4219 29.7542 32.5461C29.4327 33.4169 29.3684 34.3498 29.3684 35.2204C29.4324 36.091 29.6899 36.9616 30.0113 37.7698C30.3969 38.5783 30.8469 39.3245 31.4901 39.9464C32.0685 40.5683 32.84 41.128 33.6116 41.5011C34.4474 41.9364 35.4118 42.1851 36.3125 42.3095C37.2764 42.4339 38.3051 42.3717 39.205 42.1851C40.1053 41.9983 41.0052 41.6876 41.841 41.3145C42.6771 40.8792 43.3844 40.3195 44.0916 39.6974C44.7346 39.076 45.3132 38.3917 45.7633 37.5833C46.2131 36.7751 46.5348 35.842 46.7277 34.9097C46.9206 33.9142 46.9206 32.9192 46.792 31.9244C46.6631 30.9916 46.4062 30.121 46.0202 29.2501Z" fill="#8D8D8D"/>
<path fill-rule="evenodd" clip-rule="evenodd" d="M32.3272 22.6586L32.2627 22.5967C31.1059 22.3481 30.0772 21.7258 29.1768 21.1039C28.1481 20.3577 27.1834 19.6119 26.2195 18.9273C25.1908 18.2435 24.0335 17.6836 22.8119 17.6216C21.8475 17.5595 20.8187 17.746 19.9829 18.2435C19.211 18.6791 18.5687 19.3003 18.1184 20.047C17.604 20.8554 17.4111 21.7882 17.4111 22.6586V22.7213C17.4111 23.5917 17.604 24.5245 18.1184 25.3329C18.5684 26.0792 19.2114 26.701 19.9829 27.1361C20.8187 27.5719 21.8472 27.8204 22.8119 27.7585C24.0335 27.696 25.1908 27.1361 26.2195 26.4523C27.1834 25.768 28.1481 25.0217 29.1768 24.2757C30.0772 23.6538 31.1056 23.032 32.2627 22.7832C32.2627 22.7832 32.3272 22.7213 32.3272 22.6586Z" fill="#8D8D8D"/>
<path fill-rule="evenodd" clip-rule="evenodd" d="M125.616 24.338L129.924 14.5123L133.973 24.338H125.616ZM136.096 36.4021H147.411C145.161 35.0962 144.454 33.8524 143.039 30.6809C135.26 13.2064 132.495 7.11202 132.495 7.11202C132.495 7.11202 130.76 9.91046 125.166 10.9676C125.552 11.2164 126.002 11.9005 126.002 12.6467C126.002 13.1442 125.873 13.7661 125.552 14.5745L118.158 30.6809C116.55 34.039 115.65 35.5315 113.464 36.2153C111.728 35.2825 111.407 34.3499 111.407 30.9915V14.388C111.407 10.9064 111.728 10.0348 113.593 9.03983H103.499C105.299 10.0348 105.685 10.9062 105.685 14.388V20.047H91.6051V14.388C91.6051 10.9064 91.9909 10.0348 93.8554 9.03983H83.6968C85.6257 10.0348 85.9472 10.9062 85.9472 14.388V30.9915C85.9472 34.4741 85.6257 35.3449 83.6968 36.4021H93.8554C91.9909 35.3449 91.6051 34.4741 91.6051 30.9915V23.9029H105.685V30.9915C105.685 34.4741 105.299 35.3449 103.435 36.4021H123.43C122.466 35.8422 121.694 35.034 121.694 33.9768C121.694 33.2305 121.951 32.733 122.594 31.3647L124.201 27.6339H135.388L137.06 31.8002C137.574 32.8574 137.767 33.3549 137.767 34.039C137.767 35.034 136.868 35.8422 136.096 36.4021ZM155.384 30.9918V14.3877C155.384 10.9062 155.705 10.0346 157.505 9.03959H147.475C149.276 10.0346 149.661 10.9059 149.661 14.3877V30.9913C149.661 34.4738 149.276 35.3447 147.475 36.4019H157.505C155.705 35.3447 155.384 34.4743 155.384 30.9918ZM82.7967 7.11202C81.768 7.98264 80.0963 9.03983 75.6603 9.03983H62.9945C60.487 9.03983 59.4583 7.60952 59.008 6.73889C58.0438 8.85327 55.6008 11.8383 54.1221 13.0198H65.952V30.6184C65.952 34.1636 65.4374 35.2825 63.7017 36.4021H73.7957C71.9952 35.3449 71.674 34.4741 71.674 30.9915V13.0198H73.3457C75.8529 13.0198 77.2033 12.7711 78.2318 12.398C80.9322 11.4651 82.6038 9.53733 82.7967 7.11202Z" fill="#8D8D8D"/>
</svg>
