<svg width="293" height="45" viewBox="0 0 293 45" fill="none" xmlns="http://www.w3.org/2000/svg">
<g clip-path="url(#clip0_185_596)">
<path d="M17.9286 23.1745C19.8396 16.2214 17.66 8.93529 12.4469 5.07414C5.3454 9.42791 1.25048 17.6139 2.72959 26.1426C3.21695 28.9621 4.27265 31.5532 5.75887 33.8236C11.3116 32.3265 16.1937 29.4919 17.9286 23.1745ZM27.5137 43.2398C39.2344 41.334 47.1372 30.5872 45.1679 19.2404C43.5296 9.79531 35.5785 2.91239 26.2022 1.96155C24.3096 1.76891 22.3545 1.82119 20.3824 2.14043C18.0451 2.52022 15.8655 3.2564 13.8805 4.27604C24.2102 7.66934 29.7643 12.8267 30.1494 18.1121C30.3384 21.3746 28.7726 23.7345 26.7152 25.6582L41.3216 24.6702C41.7351 24.6427 41.8644 25.1092 41.3642 25.2482L6.52472 34.9217C10.0712 39.6525 15.5784 42.7995 21.6953 43.4187C23.5878 43.6114 25.5429 43.5618 27.5137 43.2398ZM26.3372 0.718991C37.8107 1.87624 46.7593 11.2663 46.7635 22.6833C46.7678 34.8832 36.5575 44.7782 23.9587 44.7824C11.3599 44.7865 1.14391 34.8997 1.13965 22.6984C1.13539 10.4971 11.3443 0.602029 23.9431 0.5979C24.7501 0.5979 25.5501 0.640558 26.3372 0.718991Z" fill="white"/>
<path d="M2.72938 26.1441C3.21673 28.9622 4.27243 31.5533 5.75865 33.8238C11.3114 32.3266 16.1935 29.492 17.9298 23.1746C19.8394 16.2215 17.6598 8.93544 12.4452 5.07429C5.34518 9.42806 1.25026 17.6155 2.72938 26.1441ZM45.1677 19.2392C47.137 30.5873 39.2341 41.3342 27.5135 43.24C25.5427 43.562 23.5876 43.6115 21.6936 43.4189C15.5796 42.7996 10.0695 39.6527 6.5245 34.9218L41.364 25.2483C41.8642 25.108 41.7349 24.6429 41.3214 24.6704L26.7149 25.6584C28.7723 23.7347 30.3381 21.3748 30.1492 18.1122C29.7641 12.8269 24.21 7.66949 13.8803 4.27619C15.8652 3.25655 18.0448 2.52037 20.3822 2.14058C22.3543 1.82134 24.3094 1.76905 26.202 1.9617C35.5783 2.91254 43.5294 9.79546 45.1677 19.2392Z" fill="#8D8D8D"/>
<path d="M164.917 31.355V24.0909H157.396V31.355H153.269V14.0527H157.396V20.9453H164.917V14.0527H169.076V31.355H164.917Z" fill="#8D8D8D"/>
<path d="M75.9512 14.0527V24.8849C75.9512 26.082 76.133 27.1182 76.4925 27.9603C76.8492 28.7956 77.3663 29.4905 78.0299 30.0244C78.6991 30.5638 79.5076 30.9614 80.4297 31.2064C81.3675 31.4568 82.426 31.5848 83.5755 31.5848C84.7236 31.5848 85.7722 31.4568 86.69 31.2064C87.5937 30.9614 88.3638 30.5651 88.9819 30.0299C89.5985 29.496 90.0831 28.8011 90.4212 27.9644C90.7622 27.1251 90.9327 26.0889 90.9327 24.8849V14.0527H87.0708V24.7693C87.0708 25.8605 86.7909 26.7425 86.2396 27.3893C85.6755 28.0484 84.779 28.3828 83.5755 28.3828C82.3919 28.3828 81.5025 28.0498 80.9285 27.392C80.3658 26.7467 80.0802 25.8646 80.0802 24.7693V14.0527H75.9512Z" fill="#8D8D8D"/>
<path d="M64.0441 31.3575V17.2834H59.1904V14.0525H73.0552V15.6019C73.0552 16.5294 72.278 17.2834 71.3203 17.2834H68.1731V31.3575H64.0441Z" fill="#8D8D8D"/>
<path d="M130.394 14.0514H134.523V31.3536H130.394V14.0514Z" fill="#8D8D8D"/>
<path d="M116.644 23.286L116.783 23.458L122.058 30.0395C122.728 30.8775 123.741 31.3592 124.837 31.3592H128.125L120.569 22.0517L120.458 21.9141L120.569 21.7778L126.781 14.0459H122.484L116.788 21.504L116.644 21.6843L116.643 21.3719V14.0459H112.514V31.3495H116.643V23.5942L116.644 23.286Z" fill="#8D8D8D"/>
<path d="M98.8752 21.9716H101.282C102.149 21.9716 102.81 21.7404 103.244 21.2877C103.675 20.8391 103.894 20.2557 103.894 19.5553C103.894 18.837 103.681 18.2466 103.261 17.7981C102.835 17.3412 102.17 17.1114 101.282 17.1114H98.8752V21.9716ZM107.132 31.352C105.908 31.352 104.756 30.7231 104.124 29.7104L100.911 24.5736H98.8752V31.352H94.749V14.0525H102.106C103.996 14.0525 105.477 14.53 106.505 15.4726C107.531 16.4124 108.051 17.7004 108.051 19.2993C108.051 20.1112 107.828 20.934 107.388 21.7445C106.953 22.5412 106.183 23.1935 105.096 23.682L104.857 23.7893L109.87 31.352H107.132Z" fill="#8D8D8D"/>
<path d="M137.912 30.6202V27.3026C139.226 27.8888 140.92 28.4736 142.671 28.4736C144.685 28.4736 145.707 27.8048 145.707 26.5224C145.707 25.017 144.336 24.8505 141.591 23.707C139.722 22.8993 137.942 21.6443 137.942 18.7464C137.942 15.3737 140.599 13.7844 144.278 13.7844C146.233 13.7844 147.898 14.2303 148.831 14.5646V17.7983C147.898 17.38 146.233 16.8777 144.569 16.8777C142.759 16.8777 141.912 17.519 141.912 18.6336C141.912 19.8046 142.935 20.1678 144.773 20.8366C147.138 21.9787 149.883 22.481 149.883 26.3834C149.883 29.7561 147.109 31.5958 143.401 31.5958C141.123 31.5958 139.315 31.205 137.912 30.6202Z" fill="#8D8D8D"/>
<path d="M265.442 31.3536V14.0499H276.63V15.62C276.63 16.5364 275.86 17.2809 274.915 17.2809H269.571V21.003H275.572V23.8913H269.571V28.124H276.63V31.3536H265.442Z" fill="#8D8D8D"/>
<path d="M224.624 31.3522V14.0499H226.63C227.8 14.0499 228.752 14.9719 228.752 16.1043V28.2355H235.342V31.3522H224.624Z" fill="#8D8D8D"/>
<path d="M199.066 31.3495V14.0582H203.195L203.194 31.3495H199.066Z" fill="#8D8D8D"/>
<path d="M211.109 21.9691H213.516C214.382 21.9691 215.042 21.7393 215.478 21.2866C215.908 20.8366 216.127 20.2546 216.127 19.5528C216.127 18.8359 215.914 18.2442 215.493 17.7956C215.069 17.3401 214.402 17.1089 213.516 17.1089H211.109V21.9691ZM219.365 31.3495C218.142 31.3495 216.988 30.7207 216.356 29.7093L213.145 24.5725H211.109V31.3495H206.982V14.0514H214.338C216.229 14.0514 217.709 14.5289 218.739 15.4715C219.764 16.4113 220.285 17.6993 220.285 19.2982C220.285 20.1101 220.061 20.9329 219.62 21.7434C219.186 22.5388 218.415 23.191 217.329 23.6809L217.09 23.7882L222.103 31.3495H219.365Z" fill="#8D8D8D"/>
<path d="M184.876 25.0486L186.497 20.6756C186.857 19.6917 187.218 18.6528 187.458 17.8877H187.518C187.728 18.6803 188.089 19.6642 188.448 20.6756L190.01 25.0486H184.876ZM189.977 14.0486H185.236L178.498 31.3522H181.472C182.228 31.3522 182.894 30.8857 183.13 30.1922L183.822 28.1612H191.068L192.128 31.3522H196.601L189.977 14.0486Z" fill="#8D8D8D"/>
<path d="M279.947 30.6202V27.304C281.26 27.8888 282.954 28.4736 284.706 28.4736C286.721 28.4736 287.742 27.8048 287.742 26.5224C287.742 25.017 286.37 24.8505 283.626 23.7084C281.757 22.8993 279.976 21.6457 279.976 18.7464C279.976 15.3737 282.633 13.7844 286.311 13.7844C288.268 13.7844 289.932 14.2303 290.867 14.5646V17.7983C289.932 17.3814 288.268 16.8791 286.604 16.8791C284.794 16.8791 283.947 17.5204 283.947 18.6349C283.947 19.8046 284.969 20.1678 286.807 20.8366C289.173 21.9787 291.917 22.481 291.917 26.3834C291.917 29.7561 289.143 31.5958 285.436 31.5958C283.158 31.5958 281.348 31.205 279.947 30.6202Z" fill="#8D8D8D"/>
<path d="M245.907 14.0525H248.466C249.681 14.0525 250.811 14.6593 251.453 15.6583L256.436 23.4109C256.998 24.2723 257.651 25.4103 258.037 26.2153H258.125C258.066 25.4378 258.037 24.3549 258.037 23.5774V14.0525H261.655V31.3534H257.128L251.068 21.9936C250.504 21.1336 249.911 20.1057 249.495 19.3282H249.437C249.466 20.0781 249.525 20.9671 249.525 21.7996V31.3534H245.907V14.0525Z" fill="#8D8D8D"/>
<path d="M237.999 31.3495V14.0582H242.127V31.3495H237.999Z" fill="#8D8D8D"/>
</g>
<defs>
<clipPath id="clip0_185_596">
<rect width="291.226" height="44.6197" fill="white" transform="translate(0.914062 0.380371)"/>
</clipPath>
</defs>
</svg>
