<svg width="80" height="45" viewBox="0 0 80 45" fill="none" xmlns="http://www.w3.org/2000/svg">
<g clip-path="url(#clip0_185_593)">
<path d="M80.0071 0.380371H0V45H80.0071V0.380371Z" fill="#8D8D8D"/>
<path d="M58.2112 19.363C59.0205 19.1459 59.9144 19.1667 60.693 19.488C61.1946 19.7125 61.6623 20.19 61.6069 20.7611C61.53 21.298 61.2238 21.7829 60.8422 22.1696C60.6253 22.4031 60.256 22.3868 59.9698 22.3064C59.6083 21.9078 59.4144 21.2683 58.7974 21.1761C58.2312 21.1895 57.6265 21.4542 57.3973 21.9822C57.0926 22.6589 57.1327 23.5037 57.6035 24.1016C58.1127 24.8081 58.8236 25.4536 58.939 26.3505C59.0744 27.8125 58.4405 29.3801 57.148 30.2041C56.1003 30.8809 54.7971 31.2839 53.5339 31.0802C52.6738 30.9136 51.7814 30.4629 51.4275 29.6449C51.0952 28.989 51.5583 28.3048 51.8245 27.7084C51.9783 27.3901 52.2538 26.8279 52.7046 27.1045C53.2846 27.6578 53.8631 28.2855 54.6909 28.4773C55.1756 28.638 55.8679 28.4059 55.9726 27.8809C55.9926 27.3038 55.4817 26.9082 55.1879 26.4576C54.4047 25.4373 54.3709 24.0451 54.8001 22.882C55.3648 21.3293 56.5649 19.9044 58.2112 19.363ZM72.5017 17.0324C73.1218 16.7424 73.9665 16.6561 74.4988 17.1603C74.8681 17.4488 74.9296 17.9322 75.182 18.2966C75.6466 18.6566 76.3374 18.7294 76.6698 19.2515C76.7606 19.6129 76.6021 19.9669 76.4282 20.2792C75.7005 21.4839 74.9773 22.7036 74.4527 24.0079C74.3573 24.3232 74.2188 24.7888 74.5911 24.9881C75.0035 25.0639 75.2927 24.7308 75.5666 24.4943C76.2405 23.88 76.7052 23.1022 77.2114 22.363C77.3991 22.0536 77.796 21.942 78.1438 22.0417C78.3745 22.1889 78.4099 22.4656 78.3007 22.6991C77.8606 23.8934 77.0544 24.9137 76.222 25.8775C75.4697 26.6896 74.6127 27.4808 73.5141 27.8199C72.9864 27.988 72.3617 28.0356 71.8878 27.7069C71.4616 27.4243 71.3893 26.8919 71.2401 26.4531C70.4246 27.1744 69.743 28.0862 68.706 28.5324C67.9105 28.9087 66.7874 28.867 66.2212 28.1323C65.7473 27.5701 65.7273 26.816 65.7596 26.1259C64.8857 27.347 63.9163 28.5368 62.6762 29.4292C62.1054 29.8516 61.3207 30.0955 60.6253 29.8368C59.9406 29.5259 59.7529 28.7153 59.8098 28.0475C59.9052 26.5215 60.6268 25.1234 61.2823 23.761C62.0592 22.1071 63.1378 20.5841 63.7009 18.838C64.3071 18.1434 65.5765 17.8623 66.3166 18.5286C66.6843 18.835 66.6427 19.3764 66.5012 19.7795C65.4795 21.7383 64.2317 23.584 63.2917 25.583C63.1501 25.876 63.127 26.2002 63.0993 26.517C63.7148 26.4754 64.1194 25.9519 64.501 25.5429C66.1842 23.4993 67.6751 21.3055 69.4768 19.3556C70.3631 18.4498 71.3308 17.5782 72.5017 17.0324ZM72.6186 19.5594C71.0877 20.8935 70.0492 22.6619 69.1753 24.4437C68.9414 25.0104 68.5121 25.6604 68.8891 26.2583C69.8215 26.0307 70.3954 25.2186 70.9677 24.5359C72.0124 23.1483 72.8833 21.6327 73.551 20.0427C73.6295 19.7557 73.8511 19.3392 73.5403 19.1206C73.1725 19.0864 72.8802 19.3511 72.6186 19.5594ZM27.6023 14.5991C28.2639 14.2957 29.2609 14.4073 29.581 15.1212C30.0764 16.3408 28.9317 17.6749 27.687 17.8504C27.0146 17.9813 26.2591 17.5872 26.1114 16.9194C25.9299 15.9243 26.673 14.9591 27.6023 14.5991ZM66.6812 13.2814C67.3966 12.9556 68.4444 13.1743 68.6798 13.9804C69.0506 15.4008 67.472 16.839 66.0242 16.5163C65.5242 16.3809 65.1272 15.9154 65.1287 15.4053C65.0734 14.4638 65.8042 13.6116 66.6812 13.2814ZM52.2153 8.02666C52.6353 7.68457 53.1108 7.22202 53.7077 7.31572C54.0939 7.45701 54.1878 7.87346 54.3632 8.19026C54.5386 8.5963 54.8678 8.90864 55.1048 9.2775C55.4017 9.78319 55.2202 10.3781 55.0648 10.8987C54.5417 12.4366 53.8216 13.9031 53.2723 15.432C52.723 17.0949 52.3707 18.8127 51.8999 20.4964C52.803 20.4146 53.8154 20.1364 54.6524 20.6035C54.8709 21.188 54.6647 22.0402 53.9847 22.2469C53.1246 22.5548 52.1938 22.6069 51.3321 22.9103C50.8306 25.29 50.5398 27.7024 50.2505 30.1134C50.2013 30.6295 50.2059 31.159 50.0289 31.6543C49.7705 32.389 48.7427 32.6359 48.0795 32.2834C47.5195 31.9547 47.2718 31.3196 47.1733 30.7247C47.061 29.9215 47.121 29.1065 47.2225 28.3048C47.4564 26.7208 47.818 25.1576 48.2011 23.6019C46.7256 23.9931 45.2485 24.3827 43.8007 24.8602C41.8267 28.574 39.9542 32.3607 38.5833 36.3274C38.3048 37.1038 38.2925 38.2089 37.3863 38.5703C36.0123 38.8217 34.7537 37.3061 35.2153 36.0374C36.3739 32.679 37.9571 29.4738 39.6003 26.3163C38.4325 26.7818 37.294 27.3202 36.1985 27.933C35.8338 28.1665 35.3169 28.162 34.983 27.8779C34.3368 27.3931 34.4583 26.4873 34.5491 25.7972C34.903 25.0535 35.7938 24.8542 36.4954 24.5344C38.1725 23.7997 39.9373 23.2717 41.6744 22.7036C43.6638 19.4493 45.6901 16.2099 47.938 13.1148C49.255 11.3389 50.5675 9.5348 52.2153 8.02666ZM45.5686 21.7175C46.6594 21.481 47.7503 21.243 48.8504 21.0482C49.6504 18.1107 50.5659 15.203 51.6645 12.3563C49.435 15.3517 47.4503 18.5093 45.5686 21.7175ZM20.854 7.9166C21.2325 7.62657 21.6495 7.24581 22.1711 7.30679C22.6157 7.44214 22.7234 7.92552 22.9219 8.27504C23.2066 8.86551 23.8943 9.31617 23.7789 10.042C23.5789 11.3553 22.8911 12.5362 22.4419 13.7796C21.4741 15.9273 21.0187 18.2371 20.4217 20.4964C22.2188 20.2138 24.022 19.9386 25.836 19.7795C26.6838 19.6679 27.4608 20.5603 27.0592 21.3352C26.113 23.1408 25.0683 24.9093 24.279 26.7892C24.1236 27.1432 24.0589 27.524 24.0328 27.9062C24.6852 27.8973 25.0375 27.2919 25.4529 26.8993C27.1561 25.0074 28.5809 22.8597 29.5779 20.541C29.8041 20.1231 29.6764 19.5118 30.1595 19.253C30.8057 18.8707 31.7227 18.5391 32.4089 19.018C32.9351 19.4076 32.6074 20.074 32.4966 20.5797C33.0305 19.9297 33.609 19.2961 34.3183 18.8187C35.1661 18.2059 36.4447 18.7503 36.8585 19.6084C37.077 20.0725 36.7185 20.5276 36.3585 20.8042C35.5661 21.4423 34.4722 21.4319 33.5583 21.8186C32.5628 22.1607 31.8919 22.9966 31.2965 23.7982C30.101 25.3986 29.1609 27.2518 29.0086 29.2463C28.9825 29.4917 28.9994 29.8055 28.744 29.9498C28.2501 30.2651 27.6962 30.5774 27.0838 30.5655C26.6299 30.5581 26.2699 30.1773 26.2038 29.7609C26.0222 29.166 26.2191 28.5502 26.3022 27.9598C25.6175 29.0663 24.7605 30.0941 23.7251 30.9121C23.1681 31.3836 22.3788 31.5635 21.6649 31.3598C21.1479 31.0995 20.8925 30.5254 20.851 29.987C20.754 28.8819 21.1064 27.8021 21.4695 26.7699C22.0957 25.1874 22.8265 23.6435 23.5989 22.122C22.3419 22.363 21.0894 22.6292 19.8478 22.9356C19.3247 25.3004 19.0554 27.7069 18.7785 30.1089C18.6923 30.7336 18.7646 31.4341 18.3661 31.974C17.8292 32.6136 16.6491 32.6047 16.1582 31.9116C15.612 31.1382 15.5797 30.1446 15.6382 29.2403C15.8044 27.3529 16.2536 25.5027 16.6968 23.6614C15.232 24.06 13.7719 24.4764 12.3133 24.8988C11.2301 26.8368 10.2623 28.8343 9.32687 30.8437C8.38986 32.975 7.38516 35.0974 6.81895 37.3581C6.65586 37.8921 6.34814 38.5539 5.69116 38.609C4.39874 38.6372 3.34018 37.2734 3.72637 36.0761C4.22334 34.4712 4.92801 32.9363 5.61423 31.3999C6.37584 29.6865 7.22976 28.0148 8.11291 26.3579C6.9405 26.8205 5.79732 27.347 4.68645 27.9345C4.19564 28.2423 3.49558 28.1308 3.1417 27.6801C2.60011 26.8606 2.70628 25.525 3.71714 25.0862C5.65885 24.2251 7.6698 23.5022 9.72075 22.9192C9.90384 22.8508 10.1454 22.827 10.2469 22.6396C12.5948 18.7265 15.0674 14.8713 17.8615 11.2393C18.7892 10.0777 19.7139 8.89377 20.854 7.9166ZM14.0657 21.7457C15.1843 21.4839 16.3383 21.3337 17.4276 20.9842C18.12 18.0601 19.1154 15.2074 20.1663 12.389C17.9261 15.3755 15.9536 18.5405 14.0657 21.7457Z" fill="white"/>
</g>
<defs>
<clipPath id="clip0_185_593">
<rect width="80.0071" height="44.6197" fill="white" transform="translate(0 0.380371)"/>
</clipPath>
</defs>
</svg>
