<svg width="287" height="45" viewBox="0 0 287 45" fill="none" xmlns="http://www.w3.org/2000/svg">
<g clip-path="url(#clip0_185_585)">
<path d="M0.875977 43.9226C1.50363 43.603 1.7843 42.8446 1.7843 42.196V26.2825C1.7843 25.6091 1.50363 24.8732 0.875977 24.5347H8.49193C11.8884 24.5347 15.2019 25.9193 15.2019 29.7594C15.2019 31.7962 13.4196 33.4025 11.4976 33.7634C14.2664 33.7386 16.9416 35.4228 16.9416 38.4656C16.9416 42.814 12.3621 43.9238 9.1409 43.9238L0.875977 43.9226ZM7.04122 26.2047C6.68831 26.2047 6.44317 26.2047 5.79301 26.2825V33.0687H6.56396C8.89813 33.0687 11.1541 32.3505 11.1541 29.6568C11.1541 26.9843 9.35052 26.2047 7.04122 26.2047ZM7.52676 34.8154C6.97016 34.8154 6.47041 34.8154 5.79301 34.8661V42.032C6.63739 42.1972 7.55045 42.2514 8.39245 42.2514C10.3465 42.2514 12.3337 41.3834 12.3337 38.4102C12.3337 35.4758 9.98409 34.8154 7.52676 34.8154ZM24.4735 26.2047C24.1253 26.2047 23.8186 26.2613 23.4751 26.3097V33.0145C23.7937 33.0369 24.0827 33.0699 24.3977 33.0699C26.5886 33.0699 28.2098 31.8657 28.2098 29.4928C28.2098 27.068 26.6158 26.2047 24.4735 26.2047ZM34.2898 44.037C33.5437 44.037 32.7206 44.0641 32.0077 43.8542C30.6825 43.465 28.8529 40.4906 28.1257 39.3242C26.9948 37.4277 26.0118 34.8154 23.4763 34.7871V42.196C23.4763 42.8446 23.7712 43.6301 24.3989 43.9226H18.5522C19.1668 43.603 19.4593 42.8741 19.4593 42.196V26.2825C19.4593 25.6091 19.1656 24.8732 18.5522 24.5347H25.5914C28.6539 24.5347 32.4862 25.7058 32.4862 29.3702C32.4862 32.4448 29.9317 34.0205 27.0836 34.0205C31.1361 34.0441 33.5165 43.511 37.9906 43.5381C36.7909 43.8919 35.5404 44.037 34.2898 44.037ZM38.2843 43.9226C38.7675 43.7021 39.2731 43.0664 39.2731 42.196V26.2825C39.2731 25.3992 38.7675 24.7741 38.2843 24.5347H44.2754C43.7615 24.7741 43.2925 25.3992 43.2925 26.2825V42.196C43.2925 43.0664 43.7615 43.7021 44.2754 43.9226H38.2843ZM51.285 43.9226C51.9269 43.6301 52.2407 42.8741 52.2407 42.196V26.7578H47.9383C46.9459 26.7578 45.7629 26.8793 44.9102 27.3829L46.2472 24.5335H60.5175C61.6733 24.5335 62.8552 24.5087 63.9779 24.2705C63.4343 25.7294 61.8166 26.8109 60.8846 26.8109C59.7513 26.785 57.8766 26.7095 56.2613 26.7095V42.1948C56.2613 42.8729 56.5988 43.6289 57.2288 43.9214L51.285 43.9226ZM64.6908 43.9226C65.1693 43.7021 65.6714 43.0664 65.6714 42.196V26.2825C65.6714 25.3992 65.1693 24.7741 64.6908 24.5347H70.682C70.1728 24.7741 69.6848 25.3992 69.6848 26.2825V42.196C69.6848 43.0664 70.1728 43.7021 70.682 43.9226H64.6908ZM82.3469 39.5365C82.3469 35.8438 73.613 35.01 73.613 29.1154C73.613 25.4664 77.0983 24.2717 80.1631 24.2717C81.531 24.2717 83.5099 24.4604 84.7604 25.0336L84.9783 28.6578C84.2097 27.0574 82.2853 25.8981 80.4983 25.8981C79.0855 25.8981 77.6051 26.5939 77.6051 28.2026C77.6051 32.032 86.4871 32.9673 86.4871 38.5505C86.4871 42.6029 82.9319 44.2811 79.3436 44.2811C77.4666 44.2811 74.9133 43.9214 73.33 42.8435C73.2341 42.1948 73.1902 41.5167 73.1902 40.8527C73.1902 40.0613 73.2601 39.2676 73.3774 38.4868C74.365 40.7288 76.409 42.4826 78.9623 42.4826C80.9021 42.4837 82.3469 41.6417 82.3469 39.5365ZM101.058 43.9226C101.481 43.7327 101.933 43.0664 101.933 42.196V34.9817C100.891 34.8649 99.4357 34.8142 97.8027 34.8142C96.1447 34.8142 94.6774 34.8649 93.6092 34.9817V42.196C93.6092 43.0664 94.0497 43.7021 94.4784 43.9226H88.7099C89.1374 43.7327 89.5934 43.0664 89.5934 42.196V26.2825C89.5934 25.3992 89.1374 24.7482 88.7099 24.5347H94.4784C94.0497 24.7493 93.6092 25.3992 93.6092 26.2825V32.801C94.6774 32.913 96.1186 32.9673 97.8027 32.9673C99.4357 32.9673 100.891 32.8965 101.933 32.801V26.2825C101.933 25.3992 101.482 24.7482 101.058 24.5347H106.818C106.387 24.7493 105.96 25.3992 105.96 26.2825V42.196C105.96 43.0664 106.387 43.7021 106.818 43.9226H101.058Z" fill="#8D8D8D"/>
<path d="M128.2 43.9229C128.386 43.733 128.554 43.5915 128.554 43.2483C128.554 43.1327 128.51 42.9393 128.368 42.5784C128.368 42.5784 126.77 38.2453 126.582 37.7405C125.382 37.5931 124.13 37.5931 122.904 37.5931C121.741 37.5931 120.561 37.6203 119.408 37.7405C119.245 38.1746 117.531 42.484 117.531 42.484C117.3 43.0666 117.221 43.266 117.221 43.3933C117.221 43.6811 117.47 43.8215 117.68 43.9229H113.762C114.34 43.6304 114.841 43.0289 115.088 42.4298L121.528 25.8759C121.558 25.8075 121.568 25.7309 121.568 25.6377C121.568 25.1813 121.264 24.7484 120.854 24.5338H125.906L132.456 42.4133C132.724 43.1315 133.295 43.6552 133.774 43.9217L128.2 43.9229ZM123.114 28.2253L120.161 35.7733C121.041 35.87 121.954 35.8925 122.845 35.8925C123.866 35.8925 124.875 35.8925 125.867 35.7733L123.114 28.2253ZM134.772 43.9229C135.255 43.7023 135.755 43.0666 135.755 42.1963V26.2828C135.755 25.3995 135.255 24.7744 134.772 24.535H140.759C140.25 24.7744 139.775 25.3995 139.775 26.2828V42.1963C139.775 43.0666 140.249 43.7023 140.759 43.9229H134.772ZM149.861 26.205C149.538 26.205 149.228 26.2616 148.892 26.31V33.0148C149.204 33.0372 149.49 33.0702 149.794 33.0702C151.99 33.0702 153.607 31.866 153.607 29.4931C153.606 27.0683 152.006 26.205 149.861 26.205ZM160.167 44.0373C159.421 44.0373 158.615 44.0644 157.886 43.8545C156.558 43.4653 154.733 40.4909 154.005 39.3245C152.879 37.428 151.413 34.7874 148.892 34.7874V42.1963C148.892 42.8449 149.173 43.6304 149.794 43.9229H143.952C144.58 43.6033 144.872 42.8744 144.872 42.1963V26.2828C144.872 25.6094 144.58 24.8735 143.952 24.535H151.007C154.061 24.535 157.887 25.7061 157.887 29.3705C157.887 32.4451 155.096 34.0208 152.983 34.0208C157.184 34.2614 159.717 43.5384 163.884 43.5384C162.676 43.8922 161.426 44.0373 160.167 44.0373ZM184.456 26.4279L178.539 43.9229C178.051 43.9229 177.573 43.7554 177.302 43.5655C176.717 43.0041 175.797 40.6607 175.465 39.7962L172.791 33.069L168.94 43.9229H167.107L160.485 26.3843C160.201 25.6377 159.716 24.9218 158.993 24.535H164.748C164.505 24.7225 164.338 24.936 164.338 25.344C164.338 25.5398 164.435 25.8099 164.505 26.0186L168.817 37.6214L173.408 24.535L178.465 37.1509L182.295 25.7309C182.389 25.4207 182.445 25.3063 182.445 25.1105C182.445 24.8735 182.342 24.7225 182.102 24.535H185.913C185.208 24.9029 184.699 25.7061 184.456 26.4279ZM191.528 28.2253L188.577 35.7733C189.468 35.87 190.378 35.8925 191.267 35.8925C192.277 35.8925 193.298 35.8925 194.284 35.7733L191.528 28.2253ZM196.609 43.9229C196.81 43.733 196.963 43.5915 196.963 43.2483C196.963 43.1327 196.904 42.9393 196.786 42.5784C196.786 42.5784 195.198 38.2453 195.005 37.7405C193.794 37.5931 192.544 37.5931 191.319 37.5931C190.166 37.5931 188.985 37.6203 187.826 37.7405C187.659 38.1746 185.958 42.484 185.958 42.484C185.712 43.0666 185.645 43.266 185.645 43.3933C185.645 43.6811 185.883 43.8215 186.091 43.9229H182.171C182.751 43.6304 183.25 43.0289 183.493 42.4298L189.956 25.8759C189.975 25.8075 189.992 25.7309 189.992 25.6377C189.992 25.1813 189.687 24.7484 189.266 24.5338H194.323L200.871 42.4133C201.142 43.1315 201.72 43.6552 202.196 43.9217L196.609 43.9229ZM214.201 26.5706L209.589 34.6234V42.1963C209.589 42.8119 209.843 43.6304 210.459 43.9229H204.721C205.307 43.6033 205.577 42.7919 205.577 42.1963V34.5987L201.568 28.2029C201.21 27.6049 199.537 24.818 197.499 24.818C198.054 24.6081 199.739 24.2885 200.87 24.2885C202.756 24.2885 203.691 24.4607 204.845 26.2616L208.554 32.1161C208.866 31.5417 211.803 26.4562 211.803 26.4562C212.157 25.837 212.4 25.3995 212.4 25.1825C212.4 24.9041 212.279 24.7225 211.995 24.535H216.128C215.318 24.9218 214.643 25.8087 214.201 26.5706ZM224.995 39.5367C224.995 35.8441 216.26 35.0103 216.26 29.1157C216.26 25.4667 219.736 24.272 222.802 24.272C224.175 24.272 226.142 24.4607 227.398 25.0339L227.616 28.6581C226.839 27.0577 224.923 25.8983 223.135 25.8983C221.72 25.8983 220.249 26.5942 220.249 28.2029C220.249 32.0323 229.131 32.9676 229.131 38.5508C229.131 42.6032 225.601 44.2814 221.986 44.2814C220.11 44.2814 217.551 43.9217 215.965 42.8437C215.862 42.1951 215.813 41.5169 215.813 40.8529C215.813 40.0616 215.888 39.2678 216.009 38.4871C216.996 40.7291 219.047 42.4829 221.6 42.4829C223.548 42.484 224.995 41.642 224.995 39.5367Z" fill="#8D8D8D"/>
<path d="M278.733 10.9634C275.459 14.2032 268.368 16.9842 264.879 18.2862C260.113 20.0695 257.998 20.7004 255.331 21.5649C252.312 22.5403 246.273 24.3601 246.273 24.3601C258.783 28.0798 267.598 29.2014 267.598 29.2014C267.598 29.2014 271.705 27.9371 278.212 24.4721C281.735 22.6889 283.469 21.4883 284.708 20.3407C285.166 19.9291 286.346 18.7049 286.64 17.1387C286.659 17.0243 286.716 16.7247 286.716 16.4299C286.716 16.4299 286.716 16.2223 286.697 16.0419C286.69 15.8343 286.653 15.6951 286.653 15.6951C286.653 15.6951 286.583 15.3236 286.491 15.063C286.395 14.8023 285.992 13.998 285.34 13.4755C284.904 13.1229 284.151 12.2442 281.422 11.2889C280.495 10.9681 278.993 10.6721 278.993 10.6721L278.733 10.9634Z" fill="#C6C6C6"/>
<path d="M286.715 16.3474C286.715 16.3474 286.696 16.0006 286.611 15.707C286.545 15.4451 286.427 15.1951 286.251 14.9321C286.038 14.6196 285.75 14.2528 285.325 13.8471C285.004 13.5452 284.652 13.2786 284.228 12.9956C282.522 11.8822 280.319 11.2548 278.37 10.9894C275.349 10.5896 271.884 10.6604 271.555 10.6486C270.441 10.6333 263.241 10.6922 261.39 10.7252C253.17 10.8939 243.107 10.9163 240.471 10.9163C213.258 11.0401 201.413 10.4563 188.23 7.82396C177.015 5.60554 170.793 3.49798 170.793 3.49798C180.685 3.15713 238.403 0.772418 248.933 0.494083C255.826 0.300664 260.721 0.259385 264.637 0.484648C266.646 0.596689 268.514 0.766521 270.861 1.16397C272.966 1.52251 274.877 2.13107 275.991 2.54267C278.335 3.40716 280.312 4.65731 281.289 5.93812C281.289 5.93812 281.578 6.23297 281.97 6.75662C282.409 7.36518 282.92 8.11409 283.092 8.3936C284.52 10.5472 285.197 11.8999 285.433 12.3717C285.687 12.867 285.912 13.3812 286.131 13.8848C286.346 14.3849 286.433 14.688 286.502 14.8991C286.652 15.4286 286.689 15.911 286.696 16.0195L286.715 16.3474Z" fill="#8D8D8D"/>
</g>
<defs>
<clipPath id="clip0_185_585">
<rect width="286.584" height="44.6197" fill="white" transform="translate(0.416016)"/>
</clipPath>
</defs>
</svg>
