<svg width="170" height="45" viewBox="0 0 170 45" fill="none" xmlns="http://www.w3.org/2000/svg">
<path d="M49.9779 0.292735C50.2501 0.139098 50.5503 0.03114 50.8627 0C50.6908 0.270142 50.4472 0.485568 50.2833 0.761112C49.8523 1.44914 49.6228 2.24139 49.4626 3.03148C49.3067 3.78071 49.2474 4.55096 49.0098 5.28142C48.6946 6.31434 48.1873 7.2897 47.5118 8.13029C46.6499 9.18679 45.5691 10.037 44.4439 10.7922C43.0785 11.7284 41.6361 12.5803 40.4544 13.756C39.6122 14.5961 38.9351 15.6176 38.5661 16.7564C37.8474 18.8581 37.2386 21.0118 36.2363 23.0024C35.5196 24.4403 34.5722 25.7599 33.438 26.8944C31.9679 28.3848 30.2062 29.5412 28.4103 30.5935C24.4458 32.8741 20.0937 34.4064 15.6571 35.4511C10.6989 36.5978 5.60704 37.1447 0.520617 37.1371C0.346731 37.1406 0.172804 37.1326 0 37.113C4.49637 36.5022 8.95742 35.4506 13.1489 33.6787C16.9863 32.0695 20.5883 29.8351 23.5963 26.9352C24.2589 26.2955 24.8982 25.6295 25.4925 24.9248C26.8441 23.2876 27.8021 21.3739 28.7152 19.4671C29.1894 18.4848 29.646 17.4907 30.2004 16.5496C31.0404 15.1224 32.1863 13.8774 33.5486 12.9407C35.1959 11.7988 37.0885 11.0962 38.9607 10.4254C40.0538 10.0333 41.1502 9.64868 42.2219 9.19965C42.9321 8.89729 43.6462 8.5911 44.2986 8.17272C45.5381 7.39275 46.6435 6.33419 47.2769 4.99193C47.7121 4.08523 47.9203 3.09209 48.292 2.15976C47.8851 2.34444 47.5972 2.72362 47.4627 3.14425C47.2854 3.69485 46.7306 4.02079 46.188 4.10841C46.432 3.89515 46.6483 3.63572 46.7397 3.31773C46.9629 2.58992 47.6166 1.97655 48.3924 1.93304C48.7603 1.25631 49.3018 0.664942 49.9779 0.292735ZM48.9782 1.54472C48.8003 1.65111 48.7811 1.93687 48.9461 2.06359C49.1246 2.22253 49.4594 2.09041 49.463 1.84394C49.4936 1.59845 49.1811 1.4013 48.9782 1.54472Z" fill="#8D8D8D"/>
<path d="M31.1341 12.6569C32.4938 12.1026 33.9068 11.6933 35.3304 11.342C35.0816 11.4811 34.8086 11.5671 34.5518 11.6868C32.9423 12.4044 31.5266 13.5142 30.3423 14.8156C29.0131 16.2824 27.9563 17.9808 27.097 19.7629C25.9014 22.4324 23.9811 24.7435 21.6625 26.5021C18.4194 28.9701 14.5036 30.4515 10.5012 31.0692C9.63661 31.1932 8.76671 31.3007 7.89307 31.3232C9.0214 30.9655 10.1519 30.6073 11.245 30.1485C14.1981 28.9368 16.9487 27.1612 19.1334 24.8107C20.359 23.4641 21.5092 22.0402 22.4758 20.4924C22.9948 19.6754 23.4851 18.8364 24.0783 18.0704C24.7618 17.1751 25.5538 16.3689 26.3863 15.6137C27.7737 14.3483 29.396 13.353 31.1341 12.6569Z" fill="#8D8D8D"/>
<path d="M40.6004 14.8191C40.8796 14.327 41.1728 13.8323 41.5643 13.4215C41.364 14.3351 41.1482 15.2492 41.0676 16.1833C40.9192 17.6475 41.0099 19.1202 41.0617 20.5866C41.1579 22.329 41.0387 24.1267 40.3606 25.7525C39.6834 27.3606 38.6976 28.8549 37.392 30.0156C35.6042 31.5968 33.3015 32.495 30.9657 32.8429C30.0179 32.9778 29.0556 33.0605 28.0986 32.9955C28.5979 32.6727 29.1383 32.417 29.6505 32.1136C31.1873 31.2364 32.6879 30.2702 33.9957 29.0676C35.3109 27.8564 36.41 26.4159 37.2836 24.8544C38.1428 23.32 38.5444 21.5872 38.9363 19.8861C39.3336 18.1529 39.7314 16.3864 40.6004 14.8191Z" fill="#8D8D8D"/>
<path d="M47.7348 13.4415C49.1089 12.4513 50.8666 12.1989 52.5228 12.1979C53.8051 12.2116 55.0834 12.4199 56.3075 12.7991C57.2555 13.1173 58.2231 13.5938 58.7883 14.4533C59.2253 15.1223 59.2065 15.9573 59.1622 16.7235C58.8702 16.2117 58.6374 15.6459 58.1708 15.2598C56.8688 14.081 55.0242 13.7372 53.3148 13.7657C52.1834 13.8079 51.0165 13.9287 49.9808 14.4179C49.2775 14.7647 48.6285 15.3738 48.4914 16.1744C48.3385 16.9887 48.6344 17.8198 49.1019 18.4828C50.0203 19.8159 51.417 20.7294 52.8463 21.4436C54.5291 22.2295 56.2632 22.978 57.7053 24.1715C58.597 24.9073 59.392 25.8366 59.7066 26.9673C60.1535 28.5881 59.6938 30.3907 58.6236 31.6736C57.8256 32.6226 56.7583 33.32 55.6102 33.7778C53.6749 34.5361 51.5285 34.7189 49.4837 34.3682C48.01 34.0951 46.5472 33.4909 45.4829 32.4153C44.8042 31.7385 44.5379 30.7551 44.5665 29.819C44.5941 29.3209 44.5981 28.7964 44.8279 28.3396C44.896 29.4644 45.5283 30.5066 46.4505 31.1461C48.083 32.3013 50.1643 32.6402 52.1282 32.5047C53.1925 32.4212 54.2943 32.1353 55.1209 31.433C55.9899 30.6775 56.4831 29.5046 56.3884 28.3573C56.2937 27.3818 55.7029 26.5341 55.0045 25.8779C53.5555 24.5625 51.783 23.6931 50.114 22.698C48.8554 21.9269 47.5543 21.1499 46.6024 19.9996C46.0954 19.3846 45.7019 18.6449 45.6417 17.8394C45.5006 16.1449 46.3401 14.416 47.7348 13.4415ZM74.2599 12.578C75.3301 12.1547 76.6617 13.0456 76.64 14.1989C76.7051 15.2804 75.5895 16.2205 74.5311 16.0005C73.5398 15.8649 72.8789 14.7578 73.1314 13.8158C73.2587 13.2431 73.7055 12.7666 74.2599 12.578ZM67.5307 18.5359C68.3099 18.0339 69.2776 17.8748 70.19 17.9819C70.9407 18.0821 71.6104 18.5388 72.0326 19.1577C71.3076 18.9642 70.5431 18.7353 69.7955 18.9603C68.5388 19.2805 67.7023 20.3679 67.0937 21.4387C66.1409 23.0389 65.8489 24.9112 65.6171 26.7276C65.4474 28.1795 65.3468 29.6402 65.3241 31.1019C65.3389 32.1216 65.4297 33.2296 66.1073 34.0509C65.0785 34.043 64.0399 34.1079 63.018 34.0302C62.7063 33.156 62.6461 32.2188 62.5948 31.3003C62.4705 28.9565 62.9805 26.65 63.229 24.3317C63.381 22.7275 63.4707 21.1086 63.3583 19.4986C63.302 18.9829 63.0318 18.5271 62.7714 18.0909C63.6295 18.0595 64.4897 18.0771 65.3488 18.0703C65.5086 18.0762 65.6783 18.0634 65.8292 18.1322C66.2139 18.5418 66.2129 19.143 66.2592 19.6675C66.6607 19.2677 67.0484 18.8424 67.5307 18.5359ZM73.3761 18.0899C74.4325 18.2432 75.5885 18.5408 76.2741 19.4229C76.862 20.1666 76.8314 21.1794 76.7071 22.0684C76.4053 24.7472 76.0413 27.4241 75.9634 30.1206C75.9466 31.4428 75.842 32.8593 76.5305 34.0509C75.5698 34.0538 74.6051 34.0931 73.6463 34.0342C73.1226 33.2375 73.1403 32.2178 73.094 31.2974C73.1216 27.7718 73.6986 24.2825 74.104 20.7884C74.2007 19.8277 73.8101 18.922 73.3761 18.0899ZM135.588 36.2655C135.977 36.2479 136.367 36.2439 136.757 36.2655C137.416 37.2449 137.677 38.4228 137.993 39.5436C138.45 41.2116 138.732 43.0004 139.778 44.4297C139.383 44.4376 138.985 44.4759 138.593 44.414C138.157 44.0171 137.992 43.416 137.792 42.8806C137.384 41.6468 137.097 40.3776 136.77 39.1212C136.591 38.4729 136.426 37.8157 136.124 37.2106C136.079 37.687 136.055 38.1703 135.935 38.6369C135.768 39.3245 135.403 39.9414 135.201 40.6173C135.867 40.5426 136.682 40.6016 137.07 41.2332C136.401 41.1055 135.61 41.0151 135.05 41.4906C134.214 42.2234 133.932 43.3688 133.828 44.4317C133.424 44.4445 133.02 44.4454 132.617 44.4317C132.775 43.0289 133.459 41.7686 134.088 40.5289C134.752 39.1782 135.531 37.8058 135.588 36.2655ZM140.715 36.3206C141.148 36.0897 141.738 36.4826 141.679 36.9699C141.673 37.4669 141.035 37.7823 140.632 37.4905C140.195 37.242 140.255 36.5082 140.715 36.3206ZM147.026 36.2616C147.398 36.2538 147.771 36.2547 148.143 36.2655C148.414 38.0308 148.328 39.8304 148.125 41.5977C148.049 42.5407 147.879 43.526 148.221 44.4396C147.839 44.4474 147.456 44.4484 147.074 44.4346C146.972 44.1527 146.919 43.8541 146.934 43.5545C146.974 41.1261 147.492 38.6791 147.026 36.2616ZM149.785 36.3215C150.191 36.1123 150.798 36.3864 150.816 36.8677C150.924 37.4866 150.004 37.855 149.611 37.4001C149.279 37.1025 149.392 36.5092 149.785 36.3215ZM154.416 38.5573C155.01 38.241 155.709 38.1801 156.37 38.2587C157.233 38.356 158.001 39.1261 158.005 40.0073C157.998 40.7027 157.865 41.3894 157.834 42.0839C157.797 42.8717 157.734 43.6999 158.065 44.4415C157.708 44.4415 157.352 44.4395 156.997 44.4287C156.698 43.2735 156.844 42.0682 157.033 40.9081C157.078 40.3688 157.182 39.6684 156.669 39.3098C155.609 38.6163 153.938 39.0947 153.475 40.2921C153.191 40.9798 153.141 41.7313 153.114 42.466C153.093 43.1281 152.981 43.8374 153.332 44.4405C152.937 44.4415 152.542 44.4415 152.148 44.4297C151.629 42.4317 152.769 40.3963 152.15 38.408C152.54 38.3972 152.93 38.408 153.32 38.4277C153.376 38.7381 153.426 39.0505 153.471 39.3648C153.761 39.0691 154.042 38.7509 154.416 38.5573ZM160.034 38.9621C160.591 38.4061 161.415 38.2381 162.177 38.2332C162.877 38.2361 163.649 38.5318 163.989 39.1782C164.308 39.852 163.947 40.7145 163.266 41.0033C162.328 41.4395 161.268 41.7322 160.557 42.5319C160.356 42.7116 160.399 43.0211 160.53 43.2303C160.811 43.747 161.417 43.9847 161.979 44.026C162.663 44.0388 163.28 43.6949 163.848 43.3521C163.519 43.8109 163.127 44.2735 162.569 44.4523C161.833 44.7028 160.955 44.7018 160.299 44.2411C159.484 43.6694 159.083 42.6507 159.101 41.6792C159.06 40.7037 159.33 39.6703 160.034 38.9621ZM160.714 39.7165C160.182 40.3717 160.068 41.2568 160.133 42.0731C160.603 41.7578 161.071 41.4326 161.596 41.2116C162.2 40.9218 162.897 40.577 163.133 39.9051C163.31 39.3678 162.757 38.9247 162.271 38.8786C161.63 38.8078 161.094 39.2558 160.714 39.7165ZM165.259 38.9729C165.608 38.4817 166.227 38.2734 166.809 38.2489C167.47 38.2253 168.178 38.3088 168.727 38.7076C168.979 38.8786 169.002 39.2076 169.061 39.4797C168.815 39.2882 168.609 39.0475 168.343 38.8844C167.762 38.6123 167.067 38.6526 166.482 38.8894C166.218 38.9905 165.952 39.2184 165.974 39.5269C166.029 39.8275 166.227 40.0819 166.46 40.2735C167.13 40.8255 168.051 40.9857 168.664 41.6173C169.088 42.0191 169.279 42.6488 169.121 43.2146C168.989 43.7264 168.568 44.1134 168.1 44.3335C167.412 44.6488 166.608 44.7009 165.88 44.4985C165.484 44.3845 165.103 44.1684 164.859 43.8325C164.658 43.5476 164.709 43.1831 164.7 42.855C164.9 43.1792 165.087 43.5476 165.44 43.7323C166.078 44.0584 166.87 44.1782 167.544 43.8875C168.108 43.6478 168.363 42.8187 167.927 42.3541C167.177 41.5387 165.99 41.3079 165.257 40.4739C164.881 40.0603 164.941 39.4012 165.259 38.9729ZM144.266 38.9758C144.55 38.6909 144.867 38.3697 145.298 38.353C145.73 38.2754 146.168 38.4591 146.43 38.8068C146.005 38.7577 145.495 38.633 145.143 38.9552C144.331 39.6487 144.06 40.7499 143.983 41.7696C143.902 42.6556 143.744 43.5947 144.118 44.4405C143.723 44.4425 143.33 44.4415 142.936 44.4287C142.811 43.6537 142.761 42.858 142.89 42.08C143.048 41.1026 143.165 40.1134 143.128 39.1212C143.124 38.8678 143.019 38.634 142.931 38.4021C143.327 38.4021 143.723 38.4011 144.119 38.4021C144.168 38.5927 144.217 38.7823 144.266 38.9758ZM140.443 38.3854C140.845 38.4896 141.329 38.5514 141.577 38.9287C141.787 39.2155 141.754 39.5888 141.718 39.9228C141.578 41.1242 141.406 42.3285 141.423 43.5407C141.431 43.8501 141.524 44.1488 141.625 44.4396C141.24 44.4494 140.854 44.4513 140.469 44.4219C140.307 44.0535 140.283 43.6458 140.303 43.2509C140.362 42.0358 140.533 40.8295 140.671 39.6222C140.733 39.1949 140.586 38.7803 140.443 38.3854ZM149.564 38.3766C150.079 38.4827 150.749 38.7008 150.812 39.3147C150.855 40.2057 150.677 41.0918 150.631 41.9818C150.597 42.7971 150.379 43.6576 150.726 44.4386C150.349 44.4484 149.967 44.4729 149.597 44.3855C149.362 43.7755 149.443 43.1134 149.499 42.4798C149.579 41.4935 149.717 40.5141 149.824 39.5318C149.871 39.1271 149.702 38.7459 149.564 38.3766Z" fill="#8D8D8D"/>
<path d="M79.9181 12.473C80.9045 12.472 81.8909 12.47 82.8772 12.4877C83.4069 15.1184 83.4267 17.8178 83.33 20.4898C83.2284 24.2246 82.3712 27.9202 82.5961 31.6668C84.2217 31.6904 85.8926 31.6079 87.4561 32.1383C88.547 32.5037 89.5314 33.1982 90.7013 33.3171C88.7769 32.5971 87.5222 30.3554 88.0785 28.3563C88.3606 27.3465 89.1191 26.4899 90.0769 26.0616C92.4699 25.0321 95.1036 24.7011 97.4729 23.6097C98.1209 23.2963 98.8134 22.8985 99.1083 22.2069C99.3924 21.315 99.0333 20.2599 98.259 19.7275C97.389 19.1047 96.2833 18.9377 95.2357 18.9485C93.2334 18.9515 91.2941 19.6332 89.5689 20.6106C89.9329 19.8984 90.5701 19.3817 91.2231 18.9436C92.6938 17.979 94.4871 17.6587 96.2211 17.6263C97.3545 17.6184 98.5115 17.6626 99.5966 18.0182C100.682 18.3444 101.581 19.1843 101.998 20.2314C102.283 20.9397 102.16 21.7187 102.113 22.4584C101.944 24.3327 101.5 26.1716 101.357 28.0498C101.279 28.8976 101.319 29.7503 101.309 30.6019C101.311 31.7748 101.391 32.9979 101.949 34.0568C100.965 34.0676 99.9803 34.0892 98.9959 34.046C98.2758 30.8141 98.7039 27.4889 98.9959 24.2345C96.9195 25.7492 94.2069 25.8936 92.0458 27.2443C91.2705 27.7139 90.5228 28.319 90.143 29.1638C89.706 30.1186 90.0187 31.3092 90.7753 32.0145C91.3849 32.5853 92.2539 32.7906 93.0716 32.7611C94.6893 32.6914 96.2251 31.989 97.4719 30.9841C96.8248 32.1619 95.6392 32.9153 94.4358 33.4409C93.0173 34.0607 91.4519 34.324 89.9073 34.2307C88.5835 34.16 87.2844 33.8692 85.9666 33.7474C84.0323 33.5765 82.0911 33.7886 80.1775 34.0637C79.5926 32.491 79.6379 30.7768 79.7741 29.1314C80.0029 26.2148 80.4261 23.312 80.4872 20.3837C80.504 17.7471 80.866 15.0035 79.9181 12.473ZM122.534 12.472C123.541 12.4789 124.548 12.4592 125.555 12.4877C125.986 15.4966 125.977 18.5438 125.886 21.5743C125.848 22.4564 125.732 23.3327 125.688 24.2138C127.123 23.1961 128.137 21.7285 129.452 20.5782C130.668 19.4623 132.142 18.6096 133.745 18.1902C134.838 17.8974 135.968 17.755 137.097 17.7029C136.217 18.0929 135.281 18.3621 134.459 18.8758C132.002 20.2707 130.409 22.6706 128.463 24.6372C129.815 25.9388 130.676 27.6245 131.66 29.1962C132.518 30.6177 133.453 32.0332 134.744 33.1069C135.178 33.4762 135.689 33.7356 136.167 34.0401C135.119 34.0784 134.064 34.0951 133.017 34.048C132.488 33.8338 132.078 33.4065 131.647 33.044C130.27 31.7729 129.318 30.1383 128.401 28.5273C127.637 27.1628 126.861 25.7492 125.641 24.7295C125.517 26.0311 125.38 27.3318 125.279 28.6363C125.178 29.8642 125.116 31.1029 125.246 32.3318C125.313 32.934 125.483 33.5244 125.773 34.0578C124.775 34.0666 123.776 34.101 122.78 34.0332C122.338 33.1914 122.335 32.2149 122.322 31.2886C122.404 27.1559 123.09 23.0566 123.077 18.92C123.09 17.4092 123.083 15.8964 122.969 14.3885C122.913 13.7333 122.777 13.084 122.534 12.472ZM110.518 18.6145C112.122 17.7108 114.046 17.4937 115.851 17.7501C117.326 17.9652 118.704 18.8503 119.429 20.1597C119.997 21.148 120.201 22.3277 120.04 23.4515C119.691 25.8209 119.487 28.2178 119.554 30.6137C119.601 31.7915 119.701 33.0263 120.33 34.0588C119.461 34.0588 118.588 34.104 117.722 34.0411C117.125 33.4252 117.076 32.4959 117.015 31.6874C116.99 30.2454 116.939 28.7925 117.149 27.3602C117.354 25.6971 117.758 24.039 117.625 22.3523C117.574 21.6077 117.231 20.8533 116.6 20.424C115.612 19.7422 114.366 19.5399 113.186 19.6185C111.505 19.7088 109.824 20.4662 108.779 21.8022C108.19 22.5331 107.938 23.4555 107.681 24.3396C107.237 25.93 107.124 27.5862 107.104 29.2306C107.051 30.8456 106.806 32.6481 107.793 34.0568C106.77 34.047 105.741 34.1226 104.721 34.0303C104.443 33.212 104.363 32.3475 104.312 31.4919C104.169 29.6098 104.487 27.7365 104.76 25.8799C105.046 24.0311 105.284 22.1558 105.133 20.2825C105.061 19.5026 104.86 18.7236 104.445 18.0516C105.387 18.0556 106.329 18.0624 107.271 18.0585C107.55 18.0182 107.682 18.3139 107.761 18.5291C108.015 19.3159 108.008 20.1548 108.011 20.9731C108.68 20.035 109.487 19.1607 110.518 18.6145Z" fill="#8D8D8D"/>
<path d="M141.961 18.1172C143.269 17.6997 144.661 17.5986 146.027 17.631C147.137 17.686 148.297 17.7754 149.291 18.3216C150.024 18.7086 150.58 19.3687 150.948 20.1006C151.206 20.6163 151.14 21.2086 151.13 21.7656C151.017 23.911 150.454 26.0044 150.345 28.1508C150.285 29.3954 150.243 30.6459 150.339 31.8905C150.397 32.6391 150.564 33.3866 150.91 34.0576C150.073 34.0693 149.234 34.0743 148.397 34.0713C148.251 34.0517 148.001 34.1067 147.986 33.9014C147.686 32.7982 147.645 31.6469 147.609 30.5104C147.596 28.415 147.8 26.3266 147.985 24.2421C146.593 25.2342 144.94 25.7431 143.322 26.2382C141.893 26.7244 140.387 27.3227 139.436 28.5516C138.488 29.7883 138.985 31.8228 140.394 32.4917C141.246 32.8709 142.222 32.8129 143.111 32.6017C144.32 32.3139 145.474 31.7785 146.444 30.9976C145.78 32.2452 144.595 33.1273 143.329 33.7078C142.204 34.2059 140.936 34.4505 139.714 34.2295C138.751 34.0654 137.853 33.5389 137.259 32.7668C136.329 31.5772 136.185 29.865 136.842 28.5162C137.509 27.1282 138.79 26.1016 140.247 25.6282C142.178 24.8924 144.231 24.5319 146.145 23.7539C146.764 23.4985 147.372 23.1723 147.832 22.6792C148.268 22.1694 148.297 21.4238 148.083 20.8137C147.887 20.2184 147.404 19.7587 146.857 19.4748C146.152 19.1025 145.346 18.9827 144.558 18.9532C143.302 18.9041 142.053 19.1487 140.864 19.5406C140.03 19.8019 139.272 20.243 138.487 20.6163C139.257 19.3638 140.58 18.5534 141.961 18.1172ZM160.464 18.1536C161.706 17.6742 163.066 17.5799 164.383 17.6909C165.572 17.8117 166.749 18.296 167.591 19.1556C168.463 20.0259 168.972 21.2312 169.034 22.4552C169.075 23.1114 168.93 23.7578 168.852 24.4061C168.554 26.6861 168.37 28.9926 168.514 31.2923C168.569 32.252 168.739 33.2403 169.279 34.0576C168.375 34.0517 167.469 34.1224 166.569 34.0202C166.009 33.2678 165.978 32.2943 165.949 31.3964C165.947 30.2127 165.907 29.027 166.013 27.8472C166.155 26.3718 166.495 24.9189 166.56 23.4356C166.59 22.5967 166.56 21.686 166.052 20.9758C165.51 20.2735 164.642 19.8982 163.793 19.7175C162.183 19.4228 160.444 19.6949 159.06 20.5868C158.204 21.135 157.482 21.9248 157.108 22.8757C156.54 24.3059 156.177 25.8227 156.112 27.363C156.065 28.4769 156.026 29.5919 155.987 30.7078C155.955 31.8561 156.049 33.09 156.74 34.0576C155.685 34.0634 154.63 34.1106 153.579 34.0212C153.11 31.808 153.089 29.5103 153.45 27.2804C153.806 25.0083 154.222 22.7126 154.058 20.4041C154.013 19.5848 153.79 18.7813 153.413 18.0524C154.429 18.0544 155.444 18.0671 156.46 18.0524C157.012 18.9286 156.926 19.9974 156.965 20.9856C157.793 19.7076 159.018 18.6703 160.464 18.1536Z" fill="#8D8D8D"/>
</svg>
