<svg width="168" height="168" viewBox="0 0 168 168" fill="none" xmlns="http://www.w3.org/2000/svg">
<g clip-path="url(#clip0_185_663)">
<path d="M33.5998 16.8H16.7998V33.6H33.5998V16.8Z" fill="#333333"/>
<path d="M117.6 0V8.4H109.2V16.8H117.6V50.4H126V58.8H117.6V67.2H126H134.4V50.4H159.6V58.8H168V50.4V0H117.6ZM159.6 42H126V8.4H159.6V42Z" fill="#333333"/>
<path d="M151.2 16.7998H134.4V33.5998H151.2V16.7998Z" fill="#333333"/>
<path d="M33.5998 134.4H16.7998V151.2H33.5998V134.4Z" fill="#333333"/>
<path d="M126 117.6H117.6V126H126V117.6Z" fill="#333333"/>
<path d="M83.9996 159.6H75.5996V168H83.9996V159.6Z" fill="#333333"/>
<path d="M92.4 126H84V134.4H92.4V126Z" fill="#333333"/>
<path d="M92.4 142.8H84V151.2H92.4V142.8Z" fill="#333333"/>
<path d="M168 100.8H159.6V109.2H168V100.8Z" fill="#333333"/>
<path d="M8.4 100.8H0V109.2H8.4V100.8Z" fill="#333333"/>
<path d="M8.4 58.8H0V67.2001H8.4V58.8Z" fill="#333333"/>
<path d="M92.3996 8.40039V16.8004H75.5996V25.2004H100.8V16.8004V8.40039H92.3996Z" fill="#333333"/>
<path d="M159.6 67.2V75.5999H142.8V84H117.6V75.5999H109.2V84H92.3998V92.4H117.6V100.8H100.8H92.3998V92.4H83.9998V100.8H75.5998V92.4H67.1998V100.8H58.7998V109.2H75.5998V117.6H83.9998V109.2H100.8V117.6H92.3998V126H100.8V142.8H109.2V151.2H117.6V142.8H142.8V126H151.2V117.6H142.8V100.8H126V92.4H142.8V100.8H151.2V92.4H159.6V84H168V75.5999V67.2H159.6ZM134.4 109.2V134.4H109.2V109.2H134.4Z" fill="#333333"/>
<path d="M109.2 50.4004H100.8V58.8004H92.4004V67.2004V75.6004H100.8V67.2004H109.2V58.8004H117.6V50.4004H109.2Z" fill="#333333"/>
<path d="M109.2 159.6H92.4004V168H109.2V159.6Z" fill="#333333"/>
<path d="M75.6002 8.40039H67.2002V16.8004H75.6002V8.40039Z" fill="#333333"/>
<path d="M142.8 67.2002H134.4V75.6002H142.8V67.2002Z" fill="#333333"/>
<path d="M151.2 58.8H142.8V67.2001H151.2V58.8Z" fill="#333333"/>
<path d="M41.9996 100.8H33.5996V109.2H41.9996V100.8Z" fill="#333333"/>
<path d="M50.4 159.6V126H58.8V117.6V109.2H50.4V117.6H25.2V109.2H16.8H8.4V117.6H0V168H50.4H67.2V159.6H50.4ZM42 159.6H8.4V126H42V159.6Z" fill="#333333"/>
<path d="M58.8004 50.4004H50.4004V58.8004H58.8004V50.4004Z" fill="#333333"/>
<path d="M58.8 0H50.4H0V50.4H8.4V58.8H16.8V50.4H25.2V58.8H33.6V50.4H50.4V33.6H58.8V25.2H50.4V8.4H58.8H67.2V0H58.8ZM42 42H8.4V8.4H42V42Z" fill="#333333"/>
<path d="M109.2 25.2H100.8V33.6H109.2V25.2Z" fill="#333333"/>
<path d="M92.4 0H84V8.4H92.4V0Z" fill="#333333"/>
<path d="M100.8 50.3996V41.9996H92.4V33.5996H84V41.9996H67.2V33.5996H58.8V41.9996V50.3996H67.2V67.1996H42V58.7996H33.6V67.1996H8.4V75.5996H25.2V83.9996H0V92.3996H25.2V100.8H33.6V92.3996H42V100.8H50.4V92.3996H67.2V83.9996H58.8V75.5996H67.2H75.6V83.9996H84H92.4V75.5996H84V67.1996H75.6V50.3996H100.8ZM50.4 83.9996H33.6V75.5996H50.4V83.9996Z" fill="#333333"/>
<path d="M75.5998 134.4V126V117.6H67.1998V126H58.7998V134.4H67.1998V142.8H58.7998V151.2H75.5998V142.8H83.9998V134.4H75.5998Z" fill="#333333"/>
<path d="M151.2 151.2V142.8H142.8V151.2H117.6V159.6H134.4V168H142.8V159.6H159.6V168H168V159.6V151.2H151.2Z" fill="#333333"/>
<path d="M159.6 117.6V126H151.2V134.4H168V126V117.6H159.6Z" fill="#333333"/>
</g>
<defs>
<clipPath id="clip0_185_663">
<rect width="168" height="168" fill="white"/>
</clipPath>
</defs>
</svg>
