<svg width="105" height="56" viewBox="0 0 105 56" fill="none" xmlns="http://www.w3.org/2000/svg">
<path d="M80.6699 15.5396L96.5402 15.585L104.696 0.0136257L99.9331 -1.56883e-06C98.5932 -0.00340838 97.3015 0.490579 96.3129 1.3843L80.6699 15.5396Z" fill="url(#paint0_linear_185_548)"/>
<path d="M56.3782 56H55.6261C51.5535 56 48.2524 52.7351 48.2524 48.7072V29.7324H56.3793V56H56.3782Z" fill="url(#paint1_linear_185_548)"/>
<path d="M83.9387 56H83.1867C79.114 56 75.813 52.7351 75.813 48.7072V29.7324H83.9399V56H83.9387Z" fill="url(#paint2_linear_185_548)"/>
<path d="M38.7038 24.1066L37.6279 26.3028H63.0581L66.7943 18.6795H47.4611C43.7317 18.6795 40.3308 20.7872 38.7038 24.1066Z" fill="url(#paint3_linear_185_548)"/>
<path d="M67.8722 24.1066L66.7964 26.3028H91.5813L95.3175 18.6795H76.6295C72.9002 18.6795 69.4992 20.7872 67.8722 24.1066Z" fill="url(#paint4_linear_185_548)"/>
<path d="M24.3466 48.3744C20.3267 48.3597 17.1956 47.2252 14.9773 45.465C12.542 43.3391 10.9977 40.8033 10.9965 37.3386C11.3123 31.5391 16.5216 26.304 26.938 26.304H29.2781C31.9292 26.304 34.3462 24.8061 35.5024 22.4463L37.3476 18.6807H26.9357C23.8046 18.6807 19.5908 19.0906 16.6077 19.4347C13.038 19.8469 10.8255 21.807 8.86434 23.7784L2.94541 30.3638C2.09804 31.3063 1.49983 32.1841 1.06237 33.1244C-0.351056 36.1621 -0.3545 38.5208 1.05433 41.5619C1.42635 42.3637 2.29323 43.874 3.105 44.8223L7.34987 50.2118C9.40858 53.0599 13.6041 54.9859 16.5469 55.3584C19.91 55.7854 22.5611 56.0011 24.4235 56.0011H35.1201V48.3778H24.4235C24.3971 48.3778 24.373 48.3744 24.3477 48.3744H24.3466Z" fill="url(#paint5_linear_185_548)"/>
<defs>
<linearGradient id="paint0_linear_185_548" x1="3.58257" y1="57.7806" x2="101.994" y2="4.26514" gradientUnits="userSpaceOnUse">
<stop stop-color="#00445D"/>
<stop offset="0.17" stop-color="#26356D"/>
<stop offset="0.45" stop-color="#154B94"/>
<stop offset="0.71" stop-color="#0871B9"/>
<stop offset="1" stop-color="#4BC7E7"/>
</linearGradient>
<linearGradient id="paint1_linear_185_548" x1="8.2253" y1="66.3192" x2="106.637" y2="12.8037" gradientUnits="userSpaceOnUse">
<stop stop-color="#00445D"/>
<stop offset="0.17" stop-color="#26356D"/>
<stop offset="0.45" stop-color="#154B94"/>
<stop offset="0.71" stop-color="#0871B9"/>
<stop offset="1" stop-color="#4BC7E7"/>
</linearGradient>
<linearGradient id="paint2_linear_185_548" x1="14.41" y1="77.69" x2="112.821" y2="24.1746" gradientUnits="userSpaceOnUse">
<stop stop-color="#00445D"/>
<stop offset="0.17" stop-color="#26356D"/>
<stop offset="0.45" stop-color="#154B94"/>
<stop offset="0.71" stop-color="#0871B9"/>
<stop offset="1" stop-color="#4BC7E7"/>
</linearGradient>
<linearGradient id="paint3_linear_185_548" x1="0.0177308" y1="51.2248" x2="98.4296" y2="-2.29186" gradientUnits="userSpaceOnUse">
<stop stop-color="#00445D"/>
<stop offset="0.17" stop-color="#26356D"/>
<stop offset="0.45" stop-color="#154B94"/>
<stop offset="0.71" stop-color="#0871B9"/>
<stop offset="1" stop-color="#4BC7E7"/>
</linearGradient>
<linearGradient id="paint4_linear_185_548" x1="6.48986" y1="63.1259" x2="104.902" y2="9.61039" gradientUnits="userSpaceOnUse">
<stop stop-color="#00445D"/>
<stop offset="0.17" stop-color="#26356D"/>
<stop offset="0.45" stop-color="#154B94"/>
<stop offset="0.71" stop-color="#0871B9"/>
<stop offset="1" stop-color="#4BC7E7"/>
</linearGradient>
<linearGradient id="paint5_linear_185_548" x1="-0.0559702" y1="51.0896" x2="98.3559" y2="-2.42699" gradientUnits="userSpaceOnUse">
<stop stop-color="#00445D"/>
<stop offset="0.17" stop-color="#26356D"/>
<stop offset="0.45" stop-color="#154B94"/>
<stop offset="0.71" stop-color="#0871B9"/>
<stop offset="1" stop-color="#4BC7E7"/>
</linearGradient>
</defs>
</svg>
