<svg width="243" height="72" viewBox="0 0 243 72" fill="none" xmlns="http://www.w3.org/2000/svg">
<rect x="0.9" y="0.9" width="241.2" height="70.2" rx="6.3" fill="black"/>
<rect x="0.9" y="0.9" width="241.2" height="70.2" rx="6.3" stroke="#A1A1A1" stroke-width="1.8"/>
<path d="M32.3843 55.2915C31.5219 54.7142 30.7561 54.0071 30.1162 53.1904C29.4179 52.3445 28.7706 51.4547 28.1762 50.5339C26.7796 48.4876 25.6875 46.2494 24.9308 43.8907C24.0192 41.1464 23.5762 38.5191 23.5762 35.9484C23.5762 33.08 24.1961 30.5769 25.4031 28.4758C26.2965 26.8314 27.6274 25.4556 29.2319 24.4891C30.7816 23.5208 32.5867 22.9909 34.4099 22.9544C35.048 22.9544 35.7409 23.0458 36.4702 23.2285C36.9989 23.3746 37.6371 23.6121 38.4211 23.9045C39.4238 24.2882 39.9708 24.5257 40.1531 24.5805C40.7366 24.7997 41.2289 24.8911 41.6117 24.8911C41.9035 24.8911 42.3228 24.7997 42.7877 24.6536C43.0521 24.5622 43.5535 24.3978 44.2646 24.0872C44.9683 23.8314 45.5263 23.6121 45.9693 23.4477C46.6439 23.2467 47.2966 23.064 47.8837 22.9727C48.5948 22.863 49.3004 22.8265 49.9768 22.8813C51.2713 22.9727 52.4564 23.2467 53.5139 23.6487C55.3736 24.3978 56.8741 25.5671 57.9936 27.2297C57.5196 27.522 57.082 27.8619 56.6718 28.2346C55.7838 29.0202 55.0308 29.952 54.4292 30.9843C53.6452 32.3912 53.2441 33.9807 53.255 35.5885C53.2824 37.5672 53.7837 39.3066 54.7865 40.8139C55.4921 41.9101 56.4347 42.8492 57.5834 43.6203C58.1486 44.004 58.6445 44.2689 59.1149 44.4424C58.8961 45.1276 58.6555 45.7945 58.3765 46.4522C57.7438 47.9266 56.9908 49.339 56.0974 50.6727C55.3098 51.8238 54.6899 52.6825 54.2195 53.2489C53.4866 54.1259 52.7791 54.7836 52.0681 55.2532C51.2841 55.7739 50.3633 56.0498 49.4207 56.0498C48.7826 56.0772 48.1444 55.9949 47.5355 55.8177C47.0067 55.6441 46.4853 55.4486 45.9748 55.2276C45.4406 54.9827 44.8881 54.7745 44.3247 54.6064C43.6319 54.4237 42.9208 54.336 42.2025 54.3378C41.4732 54.3378 40.7621 54.4291 40.0875 54.6027C39.5223 54.7635 38.9753 54.9608 38.4338 55.1965C37.6681 55.5162 37.1667 55.7264 36.8749 55.8177C36.2842 55.9931 35.6789 56.0991 35.0699 56.1375C34.1218 56.1375 33.2394 55.8634 32.3606 55.3153L32.3843 55.2915ZM44.8808 21.564C43.641 22.1852 42.4632 22.4483 41.2836 22.3606C41.1012 21.1803 41.2836 19.9672 41.7758 18.6389C42.2134 17.5061 42.7969 16.483 43.5991 15.5694C44.4378 14.6194 45.4406 13.8337 46.571 13.2673C47.7743 12.6461 48.923 12.3173 50.0169 12.2625C50.1628 13.5049 50.0169 14.729 49.5611 16.0445C49.1454 17.2138 48.5255 18.2917 47.7379 19.2601C46.9447 20.2102 45.9602 20.9958 44.8462 21.5622L44.8808 21.564Z" fill="white"/>
<path d="M78.6309 25.2H82.8936C86.6641 25.2 88.8789 22.8533 88.8789 18.8542V18.8367C88.8789 14.8552 86.6465 12.5173 82.8936 12.5173H78.6309V25.2ZM80.2129 23.7761V13.9412H82.7881C85.6621 13.9412 87.2617 15.6902 87.2617 18.8542V18.8718C87.2617 22.0183 85.6621 23.7761 82.7881 23.7761H80.2129Z" fill="white"/>
<path d="M95.1184 25.3757C97.6409 25.3757 99.346 23.5476 99.346 20.6296V20.6121C99.346 17.6941 97.6321 15.8835 95.1096 15.8835C92.5872 15.8835 90.8821 17.7029 90.8821 20.6121V20.6296C90.8821 23.5388 92.5784 25.3757 95.1184 25.3757ZM95.1272 24.0222C93.51 24.0222 92.4466 22.783 92.4466 20.6296V20.6121C92.4466 18.4763 93.5188 17.2371 95.1096 17.2371C96.7268 17.2371 97.7815 18.4675 97.7815 20.6121V20.6296C97.7815 22.7742 96.7356 24.0222 95.1272 24.0222Z" fill="white"/>
<path d="M103.423 25.2H104.979L107.036 18.1248H107.071L109.136 25.2H110.692L113.241 16.0593H111.729L109.901 23.4949H109.866L107.792 16.0593H106.315L104.25 23.4949H104.214L102.386 16.0593H100.866L103.423 25.2Z" fill="white"/>
<path d="M115.218 25.2H116.747V19.821C116.747 18.2654 117.687 17.2371 119.129 17.2371C120.535 17.2371 121.229 18.0544 121.229 19.5398V25.2H122.759V19.2673C122.759 17.1843 121.598 15.8835 119.595 15.8835C118.206 15.8835 117.274 16.5076 116.782 17.3601H116.747V16.0593H115.218V25.2Z" fill="white"/>
<path d="M125.509 25.2H127.038V12.5173H125.509V25.2Z" fill="white"/>
<path d="M133.612 25.3757C136.134 25.3757 137.839 23.5476 137.839 20.6296V20.6121C137.839 17.6941 136.125 15.8835 133.603 15.8835C131.08 15.8835 129.375 17.7029 129.375 20.6121V20.6296C129.375 23.5388 131.072 25.3757 133.612 25.3757ZM133.621 24.0222C132.003 24.0222 130.94 22.783 130.94 20.6296V20.6121C130.94 18.4763 132.012 17.2371 133.603 17.2371C135.22 17.2371 136.275 18.4675 136.275 20.6121V20.6296C136.275 22.7742 135.229 24.0222 133.621 24.0222Z" fill="white"/>
<path d="M142.778 25.3757C144 25.3757 145.098 24.7166 145.634 23.7146H145.67V25.2H147.199V18.8806C147.199 17.0525 145.845 15.8835 143.683 15.8835C141.53 15.8835 140.22 17.0964 140.089 18.5994L140.08 18.696H141.556L141.574 18.6169C141.75 17.7996 142.488 17.2371 143.666 17.2371C144.94 17.2371 145.67 17.9138 145.67 19.03V19.7947L143.05 19.9441C140.95 20.0671 139.737 21.0427 139.737 22.5984V22.616C139.737 24.2771 140.959 25.3757 142.778 25.3757ZM141.301 22.616V22.5984C141.301 21.7458 142.005 21.2009 143.226 21.1306L145.67 20.9812V21.7283C145.67 23.0554 144.562 24.0486 143.121 24.0486C142.022 24.0486 141.301 23.4949 141.301 22.616Z" fill="white"/>
<path d="M153.298 25.3757C154.607 25.3757 155.627 24.7166 156.198 23.6531H156.233V25.2H157.763V12.5173H156.233V17.5886H156.198C155.627 16.5339 154.563 15.8835 153.271 15.8835C150.977 15.8835 149.413 17.738 149.413 20.6208V20.6296C149.413 23.5125 150.96 25.3757 153.298 25.3757ZM153.597 24.0222C151.979 24.0222 150.977 22.7302 150.977 20.6296V20.6208C150.977 18.5378 151.979 17.2371 153.597 17.2371C155.135 17.2371 156.242 18.5818 156.242 20.6208V20.6296C156.242 22.6775 155.144 24.0222 153.597 24.0222Z" fill="white"/>
<path d="M168.748 25.3757C171.27 25.3757 172.975 23.5476 172.975 20.6296V20.6121C172.975 17.6941 171.261 15.8835 168.739 15.8835C166.216 15.8835 164.511 17.7029 164.511 20.6121V20.6296C164.511 23.5388 166.208 25.3757 168.748 25.3757ZM168.756 24.0222C167.139 24.0222 166.076 22.783 166.076 20.6296V20.6121C166.076 18.4763 167.148 17.2371 168.739 17.2371C170.356 17.2371 171.411 18.4675 171.411 20.6121V20.6296C171.411 22.7742 170.365 24.0222 168.756 24.0222Z" fill="white"/>
<path d="M175.242 25.2H176.771V19.821C176.771 18.2654 177.712 17.2371 179.153 17.2371C180.559 17.2371 181.254 18.0544 181.254 19.5398V25.2H182.783V19.2673C182.783 17.1843 181.623 15.8835 179.619 15.8835C178.23 15.8835 177.299 16.5076 176.806 17.3601H176.771V16.0593H175.242V25.2Z" fill="white"/>
<path d="M192.836 25.3757C193.135 25.3757 193.46 25.3406 193.654 25.3142V24.075C193.522 24.0837 193.346 24.1101 193.161 24.1101C192.344 24.1101 191.913 23.8376 191.913 22.8621V17.325H193.654V16.0593H191.913V13.5896H190.331V16.0593H188.995V17.325H190.331V22.8708C190.331 24.6199 191.158 25.3757 192.836 25.3757Z" fill="white"/>
<path d="M196.096 25.2H197.626V19.865C197.626 18.3093 198.566 17.2371 199.981 17.2371C201.405 17.2371 202.249 18.2126 202.249 19.865V25.2H203.778V19.6013C203.778 17.3865 202.451 15.8835 200.508 15.8835C199.146 15.8835 198.153 16.49 197.661 17.5183H197.626V12.5173H196.096V25.2Z" fill="white"/>
<path d="M210.202 25.3757C212.197 25.3757 213.691 24.1804 213.99 22.6687L214.008 22.5808H212.505L212.478 22.6599C212.215 23.4421 211.397 24.0222 210.237 24.0222C208.611 24.0222 207.574 22.9236 207.539 21.0427H214.122V20.4802C214.122 17.738 212.601 15.8835 210.105 15.8835C207.609 15.8835 205.992 17.8259 205.992 20.656V20.6648C205.992 23.5388 207.574 25.3757 210.202 25.3757ZM210.097 17.2371C211.433 17.2371 212.417 18.072 212.566 19.8474H207.565C207.732 18.1423 208.769 17.2371 210.097 17.2371Z" fill="white"/>
<path d="M92.6348 50.4369H83.7121L81.8453 55.8H77.6846L86.3857 32.7656H89.977L98.6939 55.8H94.5174L92.6348 50.4369ZM84.8354 47.2096H91.5115L88.1734 37.6541L84.8354 47.2096Z" fill="white"/>
<path d="M115.539 47.4152C115.539 50.0625 114.938 52.1771 113.735 53.7592C112.533 55.3307 110.919 56.1164 108.894 56.1164C107.017 56.1164 105.514 55.4994 104.385 54.2654V62.3812H100.541V38.6824H104.085L104.243 40.4227C105.372 39.0516 106.906 38.366 108.847 38.366C110.935 38.366 112.57 39.1465 113.751 40.7074C114.943 42.2578 115.539 44.4146 115.539 47.1779V47.4152ZM111.71 47.083C111.71 45.3744 111.367 44.0191 110.682 43.0172C110.007 42.0152 109.037 41.5143 107.771 41.5143C106.199 41.5143 105.071 42.1629 104.385 43.4602V51.0539C105.081 52.3828 106.221 53.0473 107.803 53.0473C109.026 53.0473 109.981 52.5568 110.666 51.576C111.362 50.5846 111.71 49.0869 111.71 47.083Z" fill="white"/>
<path d="M134.155 47.4152C134.155 50.0625 133.554 52.1771 132.352 53.7592C131.149 55.3307 129.536 56.1164 127.511 56.1164C125.633 56.1164 124.131 55.4994 123.002 54.2654V62.3812H119.158V38.6824H122.701L122.86 40.4227C123.988 39.0516 125.523 38.366 127.463 38.366C129.552 38.366 131.186 39.1465 132.368 40.7074C133.559 42.2578 134.155 44.4146 134.155 47.1779V47.4152ZM130.327 47.083C130.327 45.3744 129.984 44.0191 129.299 43.0172C128.624 42.0152 127.653 41.5143 126.388 41.5143C124.816 41.5143 123.688 42.1629 123.002 43.4602V51.0539C123.698 52.3828 124.837 53.0473 126.419 53.0473C127.643 53.0473 128.597 52.5568 129.283 51.576C129.979 50.5846 130.327 49.0869 130.327 47.083Z" fill="white"/>
<path d="M158.622 49.8674C158.622 48.8549 158.263 48.0744 157.546 47.526C156.839 46.9775 155.558 46.4238 153.702 45.8648C151.845 45.3059 150.369 44.6836 149.272 43.998C147.173 42.6797 146.124 40.9605 146.124 38.8406C146.124 36.9844 146.878 35.4551 148.386 34.2527C149.905 33.0504 151.872 32.4492 154.287 32.4492C155.89 32.4492 157.319 32.7445 158.574 33.3352C159.829 33.9258 160.815 34.7695 161.533 35.8664C162.25 36.9527 162.608 38.1604 162.608 39.4893H158.622C158.622 38.2869 158.242 37.3482 157.483 36.6732C156.734 35.9877 155.658 35.6449 154.255 35.6449C152.947 35.6449 151.93 35.9244 151.202 36.4834C150.485 37.0424 150.126 37.8229 150.126 38.8248C150.126 39.6686 150.516 40.3752 151.297 40.9447C152.077 41.5037 153.364 42.0521 155.157 42.59C156.95 43.1174 158.39 43.7238 159.476 44.4094C160.562 45.0844 161.359 45.8648 161.865 46.7508C162.371 47.6262 162.624 48.6545 162.624 49.8357C162.624 51.7553 161.886 53.2846 160.409 54.4236C158.943 55.5521 156.95 56.1164 154.429 56.1164C152.763 56.1164 151.228 55.8105 149.826 55.1988C148.433 54.5766 147.347 53.7223 146.567 52.6359C145.797 51.5496 145.412 50.284 145.412 48.8391H149.414C149.414 50.1469 149.847 51.1594 150.711 51.8766C151.576 52.5938 152.816 52.9523 154.429 52.9523C155.821 52.9523 156.866 52.6729 157.562 52.1139C158.268 51.5443 158.622 50.7955 158.622 49.8674Z" fill="white"/>
<path d="M170.942 34.5217V38.6824H173.963V41.5301H170.942V51.0855C170.942 51.7395 171.068 52.2141 171.321 52.5094C171.585 52.7941 172.049 52.9365 172.714 52.9365C173.157 52.9365 173.605 52.8838 174.058 52.7783V55.7525C173.183 55.9951 172.339 56.1164 171.527 56.1164C168.574 56.1164 167.097 54.4869 167.097 51.2279V41.5301H164.281V38.6824H167.097V34.5217H170.942Z" fill="white"/>
<path d="M176.08 47.083C176.08 45.4061 176.412 43.8979 177.076 42.5584C177.741 41.2084 178.674 40.1748 179.876 39.4576C181.079 38.7299 182.46 38.366 184.021 38.366C186.331 38.366 188.203 39.1096 189.638 40.5967C191.082 42.0838 191.863 44.0561 191.979 46.5135L191.995 47.4152C191.995 49.1027 191.668 50.6109 191.014 51.9398C190.371 53.2687 189.442 54.2971 188.23 55.0248C187.027 55.7525 185.635 56.1164 184.053 56.1164C181.638 56.1164 179.702 55.3148 178.247 53.7117C176.802 52.098 176.08 49.9518 176.08 47.2729V47.083ZM179.924 47.4152C179.924 49.1766 180.288 50.5582 181.015 51.5602C181.743 52.5516 182.756 53.0473 184.053 53.0473C185.35 53.0473 186.357 52.541 187.075 51.5285C187.802 50.516 188.166 49.0342 188.166 47.083C188.166 45.3533 187.792 43.9822 187.043 42.9697C186.305 41.9572 185.298 41.451 184.021 41.451C182.766 41.451 181.77 41.952 181.031 42.9539C180.293 43.9453 179.924 45.4324 179.924 47.4152Z" fill="white"/>
<path d="M204.568 42.1945C204.062 42.1102 203.54 42.068 203.002 42.068C201.241 42.068 200.054 42.743 199.442 44.093V55.8H195.598V38.6824H199.268L199.363 40.5967C200.291 39.1096 201.578 38.366 203.223 38.366C203.772 38.366 204.225 38.4398 204.584 38.5875L204.568 42.1945Z" fill="white"/>
<path d="M214.578 56.1164C212.142 56.1164 210.165 55.3518 208.646 53.8225C207.138 52.2826 206.384 50.2365 206.384 47.6842V47.2096C206.384 45.501 206.71 43.977 207.364 42.6375C208.029 41.2875 208.957 40.2381 210.149 39.4893C211.341 38.7404 212.669 38.366 214.135 38.366C216.466 38.366 218.265 39.1096 219.53 40.5967C220.806 42.0838 221.444 44.1879 221.444 46.909V48.4594H210.259C210.376 49.8727 210.845 50.9906 211.667 51.8133C212.501 52.6359 213.545 53.0473 214.8 53.0473C216.561 53.0473 217.996 52.3354 219.103 50.9115L221.176 52.8891C220.49 53.9121 219.572 54.7084 218.423 55.2779C217.284 55.8369 216.002 56.1164 214.578 56.1164ZM214.12 41.451C213.065 41.451 212.211 41.8201 211.557 42.5584C210.913 43.2967 210.502 44.325 210.323 45.6434H217.648V45.3586C217.563 44.0719 217.22 43.1016 216.619 42.4477C216.018 41.7832 215.185 41.451 214.12 41.451Z" fill="white"/>
</svg>
